<?xml version="1.0" encoding="UTF-8"?>
<!DOCTYPE svg PUBLIC "-//W3C//DTD SVG 1.1//EN" "http://www.w3.org/Graphics/SVG/1.1/DTD/svg11.dtd">
<!-- Creator: CorelDRAW 2017 -->
<svg xmlns="http://www.w3.org/2000/svg" xml:space="preserve" width="50.7998mm" height="7.1118mm" version="1.1" style="shape-rendering:geometricPrecision; text-rendering:geometricPrecision; image-rendering:optimizeQuality; fill-rule:evenodd; clip-rule:evenodd"
viewBox="0 0 5079.98 711.18"
 xmlns:xlink="http://www.w3.org/1999/xlink">
 <defs>
  <style type="text/css">
   <![CDATA[
    .fil4 {fill:#020202}
    .fil3 {fill:#333333}
    .fil2 {fill:#666666}
    .fil0 {fill:#989898}
    .fil1 {fill:#D5D5D5}
   ]]>
  </style>
 </defs>
 <g id="Capa_x0020_1">
  <metadata id="CorelCorpID_0Corel-Layer"/>
  <g id="_1396541710560">
   <g>
    <polygon class="fil0" points="2238.12,712.78 2246.2,712.78 2246.81,618.16 2207.37,620.11 2208.08,632.26 2239.92,621.43 "/>
    <path class="fil0" d="M2363.06 359.3c1.68,1.71 4.41,1.78 5.16,5 0.69,2.93 3.71,3.71 4.58,4.68 1.06,1.18 5.22,5.93 6.76,8.08l3.26 -26.25c-1.67,-1.85 -5.46,-6.15 -6.12,-4.25 -0.72,2.02 -2.83,3.27 -9.68,-8.5l-3.96 21.24z"/>
    <path class="fil0" d="M3108.52 610.6l20.23 -3.46 -2.68 -27.76 -3.25 0c-4.72,25.98 1.41,17.27 -14.3,31.22z"/>
    <path class="fil0" d="M4815.01 531.93c-7.65,-9.45 -4.69,-6.9 -14.52,-15.72 -21.23,-19.06 18.92,7.92 -10.23,-5.3l6.45 19.03 18.3 1.99z"/>
    <polygon class="fil0" points="2109.59,495.93 2108.7,467.7 2095.16,480.86 "/>
    <polygon class="fil0" points="3537.47,504.61 3517.44,477.54 3514.06,492.33 "/>
    <polygon class="fil0" points="867.01,625.42 887.53,603.98 872.07,605.33 "/>
    <polygon class="fil0" points="4605.82,555.45 4588.42,534.36 4591.04,550.36 "/>
   </g>
   <g>
    <polygon class="fil1" points="3564.58,225.13 3591.74,226.05 3591.79,-1.6 3565.98,-1.6 "/>
    <polygon class="fil1" points="282.5,13.45 310.27,19.82 308.35,-1.6 277.85,-1.6 "/>
    <path class="fil1" d="M2261.15 381.2c29.44,-16.63 6.8,7.96 7.26,-15.86 0.45,-22.22 4.43,-2.05 -9.9,-10.04l2.64 25.9z"/>
   </g>
   <g>
    <path class="fil2" d="M2914.9 712.78l4.24 0 -0.04 -103.19c4.91,-49.58 -7.96,-18.44 17.24,-21.39l-0.2 -441.62 -15.82 0.06 -1.23 -13.3 0.05 -134.94 -4.24 0 0 714.38z"/>
    <path class="fil2" d="M3813.13 619.42l-3.12 -391.14c-15.01,37.58 -7.86,149.11 -7.85,190.81 0.01,39.66 -13.27,168.7 10.97,200.33z"/>
    <path class="fil2" d="M3667.22 597.3c-8.9,-20.18 -1.68,-67.67 1.8,-85.91l-17.6 10.9 1.61 87.62c26.79,-2.62 5.88,2.01 14.19,-12.61z"/>
    <path class="fil2" d="M4248.87 273.65c0.85,-2.5 6.95,-18.9 6.93,-21.12 -0.48,-41.78 1.77,-9.9 -9.25,-22.75 -28.17,41.22 2.32,43.86 2.32,43.87z"/>
    <path class="fil2" d="M3841.79 269.86c1.31,-30.57 6.94,-19.28 -7.99,-40.14 -2.91,3.93 -14.22,-11.69 -6.22,19.5 4.43,17.26 12.96,19.13 14.21,20.64z"/>
   </g>
   <g>
    <path class="fil3" d="M4397.9 467.15l-3.83 53.08c-27.32,-13.24 -26.05,-17.61 -37.46,-37.64 15.81,-12.78 18.15,-11.86 41.29,-15.44zm-59.69 -52.3c9.43,-51.86 19.46,-75.92 59.57,-93.33l-0.89 81.28 -58.68 12.05zm-3.61 -165.27c-1.4,19.74 -7.68,148.92 3.61,165.27 -5.34,53.61 -1.85,126.62 -8.41,184.29l65.46 19.12 2.07 94.52 11.16 0 -0.13 -714.38 -10.72 0 -2.04 229.77 -61 21.41z"/>
    <polygon class="fil3" points="4720.29,85.83 4719.28,601.23 4751.42,610.05 4753.18,712.78 4763.59,712.78 4763.74,-1.6 4753.25,-1.6 4753.02,85.64 "/>
    <path class="fil3" d="M3435.59 712.78l15.29 0 -0.04 -135.09 37.05 15.63c-7.37,-113.33 0.79,-232.8 -0.94,-339.62 -13.71,7.31 -16.36,9.94 -36.25,16.62l0.06 -271.92 -15.56 0 0.39 714.38z"/>
    <path class="fil3" d="M2518.04 617.89c-4.56,-122.98 -1.68,-264.1 1.94,-387.14l-53.96 1.75 -1.94 380.15 53.96 5.24z"/>
    <path class="fil3" d="M323.63 523.34l47.03 -3.7c-6.3,-119.51 28.82,-392.79 -45.47,-461.19l-1.56 464.89z"/>
    <path class="fil3" d="M492.23 188.08l-3.2 223.08c-1.8,45.15 7.85,80.24 -0.73,141.53l33.96 3.4c6.68,-82.15 -0.46,-70.06 -24.16,-129.06 14.13,-24.81 37.65,-40.6 55.32,-54.15l2.11 -219.97c-35.2,11.26 -38.77,22.54 -63.3,35.17z"/>
    <path class="fil3" d="M1884.74 261.63l6.52 321.08c21.92,-11.62 12.44,-7.42 32.26,-13.99l-4.5 144.06 11.59 0 -0.35 -714.38 -11.12 0 0.15 281.39c-21.48,-10.81 -12.23,-8.67 -34.55,-18.16z"/>
    <path class="fil3" d="M4297.22 563.81c10.24,-62.38 -8.13,-182.17 4.87,-271.72 13.53,-93.14 7.92,-196.33 7.92,-293.69l-12.45 0c0,55.57 -0.08,111.12 -0.09,166.69 -0.01,82.37 13.05,90.2 -27.9,142.37 -38.36,48.86 -59.12,206.53 27.65,256.35z"/>
    <path class="fil3" d="M2949.41 609.71l46.22 8.14c-12.18,-125.6 -5.55,-339.37 -0.17,-468.72l-42.35 -2.63c-0.71,126.06 14.96,352.63 -3.7,463.21z"/>
    <polygon class="fil3" points="3702.19,617.14 3742.04,616.94 3742.5,231.02 3702.1,231.02 "/>
    <path class="fil3" d="M218.56 48.7c4.18,64.53 8.76,160.12 0.73,227.36l46.07 99.1 4.93 -363.44c-35.13,9.62 -12.08,1.75 -27.84,14.47 -1.93,1.55 -7.01,6.83 -8.85,8.53l-15.04 13.98z"/>
    <polygon class="fil3" points="1240.51,617.6 1242.24,231.3 1206.92,231.42 1206.61,617.52 "/>
    <path class="fil3" d="M4498.72 333.55c21.91,16.13 21.1,16.36 28.36,46.18l-27.98 -0.13 0.98 65.47 71.61 -9.36 2.44 -167.91c-33.02,-12.56 -36.33,-24.31 -77.02,-31.24l1.61 96.99z"/>
    <path class="fil3" d="M308 534.81l2.27 -514.99 -27.77 -6.37 2.79 526.59c13.47,-5.83 8.38,-3.47 22.71,-5.23z"/>
    <path class="fil3" d="M2070.64 252.56l-1.48 341.98 39.8 12.81 0.63 -111.42 -14.43 -15.07 13.54 -13.16c12.97,-83 -19.84,-37.34 -21.33,-72.43 21.79,-60.77 33.83,-80.26 21.16,-157.49l-37.89 14.78z"/>
    <path class="fil3" d="M865.1 380.78l30.98 46.25c-7.11,11.67 -2.57,8.29 -12.42,18.54 -18.24,18.99 -2.86,4.82 -21.96,15.06l10.37 144.7 15.46 -1.35c27.5,-66.72 16.6,-118.3 16.93,-192.82 0.15,-34.47 0.32,-69.15 0.38,-103.65 0.05,-43 3.03,-64.07 -37.6,-75.82l-2.14 149.09z"/>
    <path class="fil3" d="M4434.7 712.78l11.39 0 -0.11 -714.38 -11.24 0c0,63.04 1.86,128.06 0.45,190.82 -0.86,37.88 -11.36,49.24 -9.21,87.08 1.93,33.97 11.34,46.06 9.21,87.23 -1.68,32.24 -13.33,49.77 -7.18,85.84 6.12,35.84 10.3,36.9 1.89,83.57 -9.12,50.6 4.8,117.73 4.8,179.84z"/>
    <path class="fil3" d="M1829.55 233.3c2.57,37.73 4.57,89.43 0.39,127.91l17.48 20.86c11.78,21.14 -6.43,5.2 14.42,25.94 8.88,-41.82 9.51,-41.39 8.03,-92.21 -1.38,-48.17 9.8,-62.91 11.63,-102.45 3.14,-67.82 -0.36,-145.93 -0.36,-214.95l-13.05 0 0 245.2 -38.54 -10.3z"/>
    <path class="fil3" d="M1609.56 618.87l17.03 -9.28 0.51 -404.82c0.02,-63.37 11.74,-116.71 -17.23,-121.06l-0.31 535.16z"/>
    <path class="fil3" d="M3243.28 617.92l24.09 -1.94c4.14,-52.06 -5.89,-197.92 9.94,-232.81l-0.26 -111.05 -12.54 3.29 -5.5 -44.4 -16.23 -0.06c12.2,79.88 4,295.03 0.5,386.97z"/>
    <path class="fil3" d="M4076.29 397.08c6.73,56.63 6.64,161.35 0.16,219.78 20.92,-2.65 12.79,2.6 38.86,-17.17 -3.87,-81.94 -3.7,-179.04 -1.17,-253.33l-37.85 50.72z"/>
    <path class="fil3" d="M2024.36 712.78l6.65 0 0.4 -714.38 -7.05 0 -1.29 285.44c-4.86,32.42 -11.78,22.77 -11.74,71.37 0.15,132.95 13.03,226.45 13.03,357.57z"/>
    <path class="fil3" d="M1396.95 618.52c-7.61,-39.47 -3.07,-233.21 -3.1,-302.64 -0.04,-82.39 10.78,-87.25 -19.49,-87.25l-2.52 380.96 25.11 8.93z"/>
    <path class="fil3" d="M3048.62 712.78l7.27 0c-0.12,-93.35 19.68,-128.94 10.16,-170.74 -7.75,-34.08 -10.64,-1.16 -10.08,-83.24 0.22,-32.59 -2.12,-72.13 -0.05,-103.72 2.73,-41.84 14.49,-27.26 12.43,-78.89 -1.68,-42.04 -11.91,-28.04 -12.44,-78.93 -0.72,-66.02 0.25,-132.74 0.25,-198.86l-7.82 0 0.28 714.38z"/>
    <path class="fil3" d="M4497.33 522.83l0.96 95.52 74.29 -22.39 0.98 -81.73c-11.18,-6.31 -16.07,-8.96 -25.39,-14.98 -18.73,15.26 -20.07,19.24 -50.84,23.58z"/>
    <path class="fil3" d="M1830.31 490.96c4.44,40.23 2.83,87.3 -0.23,124.25l38.16 -11.35 -0.38 108.92 13.28 0c0,-25.21 1.61,-55.62 0.34,-80.1l-11.37 -56.63c-4.89,-45.71 6.34,-85.08 -8.59,-131.58 -20.8,21.64 -3.19,22.66 -31.21,46.49z"/>
    <path class="fil3" d="M3684.75 350.32c-1.46,-37.21 1.16,-54.28 9.2,-89.71 7.17,-31.61 4.93,-54.66 4.88,-87.58 -0.11,-58.21 0,-116.42 0,-174.63l-13.6 0 0.17 246.07c-4.32,1.44 -7.85,3.29 -14.61,3.03 -0.5,-0.02 -15.32,-2.71 -17.08,-3l-0.02 86.02 31.06 19.8z"/>
    <path class="fil3" d="M1547.85 617.42c23.8,-32.18 10.1,-372.09 11.25,-460.26l-1.5 -47.85c-4.76,-18.05 -3.6,-10.95 -10.42,-20.81l0.67 528.92z"/>
    <path class="fil3" d="M3751.02 616.43l19.72 -3.09 -0.49 -376.81 -19.39 -5.94c9.03,54.73 7.9,326.85 0.16,385.84z"/>
    <path class="fil3" d="M3984.61 614.23c19.6,-25.1 8.88,-228.16 1.65,-270.39 -11.28,13.92 -13.9,-19.62 -12.78,67.32 0.3,23.74 -0.06,47.66 -0.09,71.43 -0.05,37.86 -7.01,100.09 11.22,131.64z"/>
    <polygon class="fil3" points="1242.24,179 1240.9,53.68 1206.38,60.61 1206.78,172.28 "/>
    <path class="fil3" d="M3513.88 235.7c5.42,36.66 5.78,93.38 -0.48,128.18 1.82,-1.1 4.36,-5.21 5.22,-3.68 1.08,1.91 6.55,-4.81 10.42,-7.33 22.75,-14.84 -7.05,-0.85 22.52,-13.08l0.38 -110.81 -38.06 6.72z"/>
    <path class="fil3" d="M322 616.35l0.17 58.63c26.97,14.26 15.41,20.36 47.52,19.49l0.02 -98.63c-33.05,0.3 -21.31,6.03 -47.71,20.51z"/>
    <path class="fil3" d="M3514.12 611.36l36.65 5.74c-2.14,-39.16 -1.08,-69.14 1.6,-106.69l-14.9 -5.8 -23.41 -12.28 0.06 119.03z"/>
    <path class="fil3" d="M4585.43 426.87l36.98 -0.4 -2.35 -97.68c-15.52,-16.58 -10.66,-19.36 -31.08,-33.32l-3.55 131.4z"/>
    <polygon class="fil3" points="951.01,505.62 972.8,506.18 973.23,336.57 948.87,334.72 "/>
    <path class="fil3" d="M2584.32 334.02l35.27 0.66c-0.66,-20.3 0.01,-39.02 -0.25,-59.19 -0.13,-9.92 0.25,-20.26 -2.18,-28.8 -11.14,-39.09 8.93,2.46 -10.29,-14.09l-30.56 4.05 8.01 97.37z"/>
    <polygon class="fil3" points="2207.37,620.11 2246.81,618.16 2243.05,524.99 2203.25,530.37 "/>
    <path class="fil3" d="M2207.02 316.41l35.55 6.88c4.3,-30.73 -0.77,-60.36 6,-96.43l-44.23 1.22 2.68 88.33z"/>
    <polygon class="fil3" points="1695.73,609.35 1734.06,617.29 1734.79,526.37 1695.06,514.3 "/>
    <path class="fil3" d="M2202.83 388.48l3.9 65 38.05 1.18c-2.04,-33.95 -3.22,-35.59 4.05,-67.29 2.43,-10.57 7.7,-14.34 6.2,-32.4 -3.94,-47.4 0.42,-16.68 -14.76,-31.09l-1.6 62.63 -35.84 1.97z"/>
    <path class="fil3" d="M2258.51 355.3c14.33,7.99 10.35,-12.18 9.9,10.04 -0.46,23.82 22.18,-0.77 -7.26,15.86l0.77 61.75 15.94 -0.05c0.32,-17.09 1.12,-30.66 2.35,-47.63 2.48,-34.32 1.46,-16.2 -1.03,-47.62 -2.55,-32.22 -2.88,-70.49 0.33,-104.36l-18.42 -0.4 -2.58 112.41z"/>
    <path class="fil3" d="M4124.31 285.05c8.54,48.95 5.44,199.04 1.26,252.83 10.77,-11.48 4.21,12.62 14.6,-18.86l2.37 -107.86c-0.12,-47.35 1.75,-95.36 -1.26,-142.49 -14.82,28.35 -2.22,4.08 -16.97,16.38z"/>
    <polygon class="fil3" points="1695.68,244.66 1695.21,332.17 1734.4,322.11 1732.8,235.43 "/>
    <path class="fil3" d="M1396.79 168.08l0.16 -106.64c-21.85,10.22 -36.99,16.2 -39.45,48.44 -2.79,36.64 9.09,48 39.29,58.2z"/>
    <path class="fil3" d="M4037.39 482.12c3.97,42.76 6.22,92.28 2.13,138.32l25.25 -0.31c-1.08,-15.11 0.38,-119.99 -5.56,-145.2l-21.82 7.19z"/>
    <path class="fil3" d="M3165.88 233.39c-1,1.96 -2.47,4.35 -2.97,5.91 -9.78,30.7 -10.6,354.63 3.76,378.07l-0.79 -383.98z"/>
    <path class="fil3" d="M2426.07 230.63c-12.39,37.44 -11.15,361.08 3.47,386.54l-3.47 -386.54z"/>
    <path class="fil3" d="M1685.58 356.34l1.27 -100.88 -25.73 12.35 -1.12 125.48c4.26,-4.99 5.73,-14 8.84,-19.27 12.79,-21.75 4.89,-8.75 16.74,-17.68z"/>
    <path class="fil3" d="M1680.39 591.01l5.49 -100.4c-13.26,-10.27 -1.14,4.21 -17.03,-17.64 -0.9,-1.25 -6.56,-12.51 -9.29,-14.94l0.11 120.71 20.72 12.27z"/>
    <path class="fil3" d="M2631.27 329.66l25.6 0.74 2.57 -102.59 -28.05 1.99c2.15,34.13 4.25,67.24 -0.12,99.86z"/>
    <path class="fil3" d="M3563.34 628.41l24.51 -1.37 -1.21 -100.12c-13.5,-3.3 -10.38,-0.48 -24.23,-7.44l0.93 108.93z"/>
    <path class="fil3" d="M3566.42 328.91c36.33,-9.59 5.78,0.5 20.85,-13l4.47 -89.86 -27.16 -0.92 1.84 103.78z"/>
    <path class="fil3" d="M829.48 343.61l23.02 3.06 0.61 -115.02 -23.19 -1.41c7.69,36.23 1.79,78.56 -0.44,113.37z"/>
    <path class="fil3" d="M1090.64 617.02l0.31 -116.47c-11.25,-6.28 -12.13,-1.11 -19.15,-10.06l-0.35 122.49 19.19 4.04z"/>
    <path class="fil3" d="M821.4 616.94l-0.61 -78.11c-33.77,16.61 -34.6,31.02 -33.69,78.7l34.3 -0.59z"/>
    <polygon class="fil3" points="3293.39,252.68 3294.01,350.37 3315.28,340.59 3317.98,243.57 "/>
    <path class="fil3" d="M2258.04 615.02l24.2 -1.34c-4.25,-38.63 -3.78,-57.48 -0.11,-97.5l-24.72 1.58 0.63 97.26z"/>
    <path class="fil3" d="M833.83 504.33l-2.13 113.32 19.81 -0.24c-3.21,-40.55 -0.32,-87.35 1.52,-123.34l-19.2 10.26z"/>
    <polygon class="fil3" points="2544.89,260.38 2544.8,362.78 2566.17,356.18 2564.32,252.75 "/>
    <path class="fil3" d="M820.82 307.89l0.66 -77.18 -31.98 0.94c-5.93,41.26 0.69,56.48 31.32,76.24z"/>
    <path class="fil3" d="M1090.74 339.2l0.24 -108.09 -18.86 5.41 0.96 112.04c5.48,-6.64 9.57,-3.72 17.66,-9.36z"/>
    <polygon class="fil3" points="1100.09,617.06 1121.15,618.48 1121.95,543.65 1099.83,532.41 "/>
    <path class="fil3" d="M3341.68 331.21c12.96,-16.72 14.01,-55.96 10.12,-79.12 -5.22,-31.06 -1.82,-11.56 -10.12,-20.16 -11.08,19.33 -12.69,78.17 0,99.28z"/>
    <polygon class="fil3" points="1105.12,304.7 1122.29,300.9 1122.87,230.79 1099.88,230.43 "/>
    <path class="fil3" d="M3628.41 321.99c12.52,-19.44 12.4,-71.93 -0.98,-92.03 -12.18,17.74 -13.34,70.11 0.98,92.03z"/>
    <path class="fil3" d="M714.37 223.13c10.96,-20.64 14.44,-64.07 0,-87.14 -16.57,21.33 -11.48,67.52 0,87.14z"/>
    <path class="fil3" d="M3627.43 530.43c-11.77,19.76 -12.14,67.27 0,86.61l5.9 -9.9c5.88,-18.98 -0.29,9.6 2.9,-13.11 2.86,-20.42 1.94,-48.05 -8.8,-63.6z"/>
    <path class="fil3" d="M269.59 541.65l-0.17 -77.82c-11.05,13.69 -13.41,15.71 -18.91,40.11 -7.05,31.27 -2.57,27.92 19.08,37.71z"/>
    <path class="fil3" d="M2382.17 421.84l-2.61 -44.78c-1.54,-2.15 -5.7,-6.9 -6.76,-8.08 -0.87,-0.97 -3.89,-1.75 -4.58,-4.68 -0.75,-3.22 -3.48,-3.29 -5.16,-5 3.45,32.26 -7.23,61.96 19.11,62.54z"/>
    <path class="fil3" d="M3108.52 610.6c15.71,-13.95 9.58,-5.24 14.3,-31.22l-15.79 -37.13 1.49 68.35z"/>
   </g>
   <g>
    <path class="fil4" d="M4778.33 712.78l13.76 0c0,-15.86 -0.84,-32.63 -0.73,-48.16 0.38,-53.51 -4.29,-32.4 18.75,-41.79 21.43,10.31 15.88,-33.01 15.88,89.95l15.85 0c0,-49.49 -5.63,-72.67 7.97,-96.78 5.7,10.06 2.65,-11.05 7.41,17.65l0.77 79.13 20.72 0 -0.1 -714.38 -21 0c0,70.11 5.79,484.77 -2.29,522.39 -0.34,1.59 -2.25,6.97 -2.54,5.93 -0.29,-1.02 -1.98,3.72 -2.97,5.58 -11.81,-22.13 -8.27,-36.25 -8,-65.57l-0.01 -468.33 -15.71 0 -0.07 412.76c-0.01,35.59 9.14,121.78 -11.01,120.77l-18.3 -1.99 -6.45 -19.03 1.39 -512.51 -13.19 0 -0.13 714.38z"/>
    <path class="fil4" d="M627.15 712.78l16.63 0 1.72 -457.93c16.87,16.55 11.5,0.55 18.01,28.77l-0.98 429.16 18.25 0c1,-121.4 0.8,-243.7 0.24,-365.13 -0.29,-63.34 8.07,-117.01 6.95,-174.71 -1.11,-56.72 -6.88,-108.84 -6.88,-174.54l-18.69 0 0.23 128.62 -18.66 -1.21 -0.16 -127.41 -16.75 0c0,64.41 -5.27,117.27 -6.43,174.32 -1.29,64.36 6.87,114.63 6.7,174.79 -0.34,121.75 -0.18,243.52 -0.18,365.27z"/>
    <path class="fil4" d="M406 712.78l37.79 0c0.26,-124.03 6.63,-233.4 7.01,-357.23 0.34,-115.17 -6.81,-236.17 -6.94,-357.15l-37.48 0 -0.38 714.38z"/>
    <path class="fil4" d="M2995.46 149.13c-5.38,129.35 -12.01,343.12 0.17,468.72l-3.58 94.93 40.54 0 -0.07 -714.38 -40.6 0 3.54 150.73z"/>
    <path class="fil4" d="M3211.22 712.78l34.95 0 -2.89 -94.86c3.5,-91.94 11.7,-307.09 -0.5,-386.97l3.43 -232.55 -35.17 0c0,61.02 0.47,122.1 0.47,183.08 0,51.77 -9.67,105.13 -9.67,166.17 0,60.87 0.05,121.74 -0.03,182.61 -0.09,70.12 9.64,110.74 9.41,182.52z"/>
    <path class="fil4" d="M1122.87 230.79l-0.58 70.11 -0.34 242.75 -0.8 74.83 -1.56 94.3 37.54 0c0,-236.91 0.06,-476.14 0.06,-714.38l-37.44 0 3.12 232.39z"/>
    <path class="fil4" d="M4008.56 712.78l33.99 0 -3.03 -92.34c4.09,-46.04 1.84,-95.56 -2.13,-138.32 17.57,-75.32 4.91,-383.63 4.91,-483.72l-33.87 0 0.13 714.38z"/>
    <polygon class="fil4" points="4620.06,328.79 4622.41,426.47 4619.65,712.78 4654.62,712.78 4654.46,-1.6 4619.65,-1.6 "/>
    <polygon class="fil4" points="1240.9,53.68 1242.24,179 1242.24,231.3 1240.51,617.6 1238.96,712.78 1274.39,712.78 1274.45,-1.6 1238.78,-1.6 "/>
    <polygon class="fil4" points="5047.8,712.78 5079.99,712.78 5079.99,-1.6 5047.8,-1.6 "/>
    <path class="fil4" d="M189.01 712.78l33.23 0 -2.95 -436.72c8.03,-67.24 3.45,-162.83 -0.73,-227.36l4.19 -50.3 -33.59 0 -0.15 714.38z"/>
    <polygon class="fil4" points="-0.01,712.78 31.96,712.78 31.96,-1.6 -0.01,-1.6 "/>
    <polygon class="fil4" points="3873.49,712.78 3905.46,712.78 3905.21,-1.6 3873.43,-1.6 "/>
    <path class="fil4" d="M1396.95 61.44l-0.16 106.64 -3.06 59.37 -19.37 1.18c30.27,0 19.45,4.86 19.49,87.25 0.03,69.43 -4.51,263.17 3.1,302.64l-3.5 94.26 32.8 0 -0.04 -714.38 -32.41 0 3.15 63.04z"/>
    <path class="fil4" d="M4297.22 563.81c0.33,36.35 1.14,100.92 1.14,148.97l35.29 0 -3.85 -113.64c6.56,-57.67 3.07,-130.68 8.41,-184.29 -11.29,-16.35 -5.01,-145.53 -3.61,-165.27l-0.64 -251.18 -23.95 0c0,97.36 5.61,200.55 -7.92,293.69 -13,89.55 5.37,209.34 -4.87,271.72z"/>
    <polygon class="fil4" points="1494.33,712.78 1524.09,712.78 1524.27,-1.6 1494.26,-1.6 "/>
    <path class="fil4" d="M3486.95 253.7c1.73,106.82 -6.43,226.29 0.94,339.62l-3.69 119.46 32.17 0 -2.25 -101.42 -0.06 -119.03 3.38 -14.79 -4.04 -113.66c6.26,-34.8 5.9,-91.52 0.48,-128.18l2.2 -237.3 -31.44 0 2.31 255.3z"/>
    <path class="fil4" d="M2519.98 230.75c-3.62,123.04 -6.5,264.16 -1.94,387.14l-2.18 94.89 32.03 0 -3.09 -350 0.09 -102.4 3.1 -261.98 -32.32 0 4.31 232.35z"/>
    <path class="fil4" d="M3922.92 712.78l18.92 0c-0.13,-58.23 -5.42,-126.9 6.25,-178.87 20.69,-92.11 -6.52,-271.51 -6.05,-352.93 0.35,-60.83 0.17,-121.75 0.17,-182.58l-19.29 0 0 714.38z"/>
    <path class="fil4" d="M1809.7 712.78l23.85 0 -3.47 -97.57c3.06,-36.95 4.67,-84.02 0.23,-124.25l-0.37 -129.75c4.18,-38.48 2.18,-90.18 -0.39,-127.91l4.26 -234.9 -24 0 -0.11 714.38z"/>
    <polygon class="fil4" points="50.3,712.78 68.96,712.78 68.96,-1.6 50.3,-1.6 "/>
    <path class="fil4" d="M2936.14 146.58l0.2 441.62 0.71 124.58 17.49 0 -5.13 -103.07c18.66,-110.58 2.99,-337.15 3.7,-463.21l1.21 -148.1 -17.05 0 -1.13 148.18z"/>
    <path class="fil4" d="M2055.96 712.78l15.68 0 -2.48 -118.24 1.48 -341.98 1 -254.16 -15.9 0c0,120.87 -7.07,241.87 -6.83,357.18 0.25,125.75 7.05,235.68 7.05,357.2z"/>
    <polygon class="fil4" points="2144.63,712.78 2162.4,712.78 2162.52,-1.6 2144.22,-1.6 "/>
    <path class="fil4" d="M4059.21 474.93c5.94,25.21 4.48,130.09 5.56,145.2l-3.22 92.65 18.25 0 -3.35 -95.92c6.48,-58.43 6.57,-163.15 -0.16,-219.78l3.48 -398.68 -18.06 0c-0.33,153.87 -6.59,331.15 -2.5,476.53z"/>
    <path class="fil4" d="M476.31 712.78l15.71 0 -3.72 -160.09c8.58,-61.29 -1.07,-96.38 0.73,-141.53l3.2 -223.08 -0.15 -189.68 -15.77 0c0,122.36 -6.81,237.49 -6.5,357.19 0.33,123.07 6.87,234.48 6.5,357.19z"/>
    <path class="fil4" d="M2190.77 712.78l16.16 0 1.15 -80.52 -0.71 -12.15 -4.12 -89.74 3.48 -76.89 -3.9 -65 4.19 -72.07 -2.68 -88.33 2.46 -229.68 -15.8 0c-0.52,63.29 1.48,127.81 0.17,190.83 -0.78,37.89 -10.2,49.22 -8.48,86.87 1.51,33.26 9.97,47.87 8.15,87.63 -1.42,30.89 -11.66,51.78 -6.5,84.49 6.1,38.7 9.68,40.74 2.25,85.96 -9.23,56.21 4.18,116.12 4.18,178.6z"/>
    <polygon class="fil4" points="4703.26,712.78 4722.61,712.78 4719.28,601.23 4720.29,85.83 4722.87,-1.6 4703.23,-1.6 "/>
    <polygon class="fil4" points="3126.07,579.38 3128.75,607.14 3127.31,712.78 3143.18,712.78 3143.11,-1.6 3127.24,-1.6 "/>
    <polygon class="fil4" points="3277.05,272.12 3277.31,383.17 3278.34,712.78 3294.02,712.78 3294.01,350.37 3293.39,252.68 3294.02,-1.6 3278.08,-1.6 "/>
    <polygon class="fil4" points="1960.49,712.78 1976.8,712.78 1977.03,-1.6 1960.87,-1.6 "/>
    <path class="fil4" d="M2279.51 243.29c-3.21,33.87 -2.88,72.14 -0.33,104.36 2.49,31.42 3.51,13.3 1.03,47.62 -1.23,16.97 -2.03,30.54 -2.35,47.63l4.27 73.28c-3.67,40.02 -4.14,58.87 0.11,97.5l-4.19 99.1 17.39 0 -0.06 -714.38 -17.26 0 1.39 244.89z"/>
    <polygon class="fil4" points="4945.11,712.78 4961.05,712.78 4961.21,-1.6 4945.21,-1.6 "/>
    <polygon class="fil4" points="1309.64,712.78 1325.64,712.78 1325.49,-1.6 1309.74,-1.6 "/>
    <polygon class="fil4" points="1039.84,712.78 1055.78,712.78 1055.71,-1.6 1039.93,-1.6 "/>
    <polygon class="fil4" points="2698.87,712.78 2714.74,712.78 2714.71,-1.6 2698.87,-1.6 "/>
    <polygon class="fil4" points="2754.3,712.78 2770.17,712.78 2770.15,-1.6 2754.46,-1.6 "/>
    <polygon class="fil4" points="1174.87,712.78 1190.71,712.78 1190.49,-1.6 1174.77,-1.6 "/>
    <polygon class="fil4" points="103.3,712.78 119.02,712.78 119.02,-1.6 103.3,-1.6 "/>
    <polygon class="fil4" points="2382.82,350.81 2379.56,377.06 2382.17,421.84 2380.61,712.78 2397.18,712.78 2397.21,-1.6 2380.74,-1.6 "/>
    <path class="fil4" d="M4574.13 267.8l-2.44 167.91 1.87 78.52 -0.98 81.73 -0.9 116.82 16.12 0c0,-29.18 -0.34,-58.42 -0.36,-87.56 -0.05,-51.77 1.25,-35.88 18.38,-69.77l-14.78 -5.09 -2.62 -16 -2.99 -107.49 3.55 -131.4 -1.15 -297.07 -16.1 0 2.4 269.4z"/>
    <polygon class="fil4" points="2802.15,712.78 2817.74,712.78 2817.39,-1.6 2801.96,-1.6 "/>
    <path class="fil4" d="M4484.81 712.78l15.96 0 -2.48 -94.43 -0.96 -95.52 2.75 -77.76 -0.98 -65.47 -0.38 -46.05 -1.61 -96.99 3.38 -238.16 -15.65 0c-0.06,63.36 0.74,127.6 -0.04,190.83 -0.4,32.17 -7.12,54.22 -6.9,87.01 0.23,36.9 8.9,49.87 6.79,87.26 -6.58,115.65 0.12,229.42 0.12,349.28z"/>
    <path class="fil4" d="M2248.57 226.86c-6.77,36.07 -1.7,65.7 -6,96.43l-2.3 0.59c15.18,14.41 10.82,-16.31 14.76,31.09 1.5,18.06 -3.77,21.83 -6.2,32.4 -7.27,31.7 -6.09,33.34 -4.05,67.29l-1.73 70.33 3.76 93.17 -0.61 94.62 15.13 0 -3.29 -97.76 -0.63 -97.26 4.51 -74.81 -0.77 -61.75 -2.64 -25.9 2.58 -112.41 0.24 -244.49 -18.15 0c-0.05,61.73 -9.9,174.93 5.39,228.46z"/>
    <polygon class="fil4" points="310.27,19.82 308,534.81 306.97,712.78 325.05,712.78 322.17,674.98 322,616.35 323.63,523.34 325.19,58.45 324.41,-1.6 308.35,-1.6 "/>
    <path class="fil4" d="M2606.87 232.6c19.22,16.55 -0.85,-25 10.29,14.09 2.43,8.54 2.05,18.88 2.18,28.8 0.26,20.17 -0.41,38.89 0.25,59.19l-1.99 378.1 17.52 0 -3.85 -383.12c4.37,-32.62 2.27,-65.73 0.12,-99.86l3.6 -231.4 -17.37 0 -0.88 229.84 -9.87 4.36z"/>
    <path class="fil4" d="M3684.75 350.32c1.31,53.43 12.44,132.68 -15.73,161.07 -3.48,18.24 -10.7,65.73 -1.8,85.91l18.17 0.9 1.11 114.58 18.88 0 -3.19 -95.64 -0.09 -386.12 3.09 -232.62 -6.36 0c0,58.21 -0.11,116.42 0,174.63 0.05,32.92 2.29,55.97 -4.88,87.58 -8.04,35.43 -10.66,52.5 -9.2,89.71z"/>
    <polygon class="fil4" points="1595.36,712.78 1612.31,712.78 1609.56,618.87 1609.87,83.71 1612.06,-1.6 1595.46,-1.6 "/>
    <path class="fil4" d="M853.11 231.65l-0.61 115.02 0.53 147.4c-1.84,35.99 -4.73,82.79 -1.52,123.34l-2.17 95.37 16.03 0 1.64 -87.36 5.06 -20.09 -10.37 -144.7 3.4 -79.85 2.14 -149.09 -2.16 -233.29 -15.74 0 3.77 233.25z"/>
    <path class="fil4" d="M2564.32 252.75l1.85 103.43 -2.34 356.6 16.29 0c0,-86.63 -9.1,-318.65 4.2,-378.76l-8.01 -97.37 4.1 -238.25 -16.58 0 0.49 254.35z"/>
    <path class="fil4" d="M3551.94 228.98l-0.38 110.81 0.81 170.62c-2.68,37.55 -3.74,67.53 -1.6,106.69l-1.96 95.68 18.02 0 -3.49 -84.37 -0.93 -108.93 4.01 -190.57 -1.84 -103.78 1.4 -226.73 -17.23 0 3.19 230.58z"/>
    <path class="fil4" d="M4114.14 346.36c-2.53,74.29 -2.7,171.39 1.17,253.33l-3.73 113.09 15.91 0 -1.92 -174.9c4.18,-53.79 7.28,-203.88 -1.26,-252.83l2.96 -286.65 -15.53 0 2.4 347.96z"/>
    <polygon class="fil4" points="937.22,712.78 952.46,712.78 951.01,505.62 948.87,334.72 952.43,-1.6 937.18,-1.6 "/>
    <path class="fil4" d="M3742.5 231.02l-0.46 385.92 -3.45 95.84 15.87 0 -3.44 -96.35c7.74,-58.99 8.87,-331.11 -0.16,-385.84l3.57 -232.19 -15.75 0 3.82 232.62z"/>
    <path class="fil4" d="M1861.84 408.01l-0.32 36.46c14.93,46.5 3.7,85.87 8.59,131.58l11.37 56.63c1.27,24.48 -0.34,54.89 -0.34,80.1l6.24 0 3.88 -130.07 -6.52 -321.08 2.8 -263.23 -6.4 0c0,69.02 3.5,147.13 0.36,214.95 -1.83,39.54 -13.01,54.28 -11.63,102.45 1.48,50.82 0.85,50.39 -8.03,92.21z"/>
    <polygon class="fil4" points="1732.8,235.43 1734.4,322.11 1734.79,526.37 1734.06,617.29 1730.65,712.78 1744.91,712.78 1745.61,-1.6 1730.94,-1.6 "/>
    <polygon class="fil4" points="1686.85,255.46 1685.58,356.34 1685.88,490.61 1680.39,591.01 1682.71,712.78 1698.58,712.78 1695.73,609.35 1695.06,514.3 1695.21,332.17 1695.68,244.66 1698.58,-1.6 1682.87,-1.6 "/>
    <path class="fil4" d="M821.48 230.71l-0.66 77.18 -0.03 230.94 0.61 78.11 -3.59 95.84 15.59 0 -1.7 -95.13 2.13 -113.32 -4.35 -160.72c2.23,-34.81 8.13,-77.14 0.44,-113.37l3.7 -231.84 -15.91 0 3.77 232.31z"/>
    <polygon class="fil4" points="1090.98,231.11 1090.74,339.2 1090.95,500.55 1090.64,617.02 1087.49,712.78 1103.27,712.78 1100.09,617.06 1099.83,532.41 1105.12,304.7 1099.88,230.43 1103.27,-1.6 1087.52,-1.6 "/>
    <path class="fil4" d="M2331.62 712.78l11.35 0c0,-236.56 -0.16,-469.11 -0.16,-714.38l-11.28 0 0.09 714.38z"/>
    <polygon class="fil4" points="4673.75,712.78 4684.95,712.78 4684.85,-1.6 4673.82,-1.6 "/>
    <polygon class="fil4" points="2889.18,712.78 2899.26,712.78 2899.14,-1.6 2889.27,-1.6 "/>
    <path class="fil4" d="M1000.53 712.78l7.17 0 -0.12 -714.38 -6.99 0c0,60.85 -0.29,121.7 -0.29,182.56 0,63 -7.57,118.63 -7.3,174.44 0.58,123.62 7.93,234.59 7.53,357.38z"/>
    <path class="fil4" d="M3387.82 712.78l9.42 0c0,-60.66 -1.17,-122.25 -0.25,-182.77 0.94,-62.2 11.61,-103.41 3.15,-168.89 -12.54,-96.87 -2.9,-258.72 -2.9,-362.72l-9.61 0 0.19 714.38z"/>
    <path class="fil4" d="M4214.68 712.78l8.19 0 0.19 -714.38 -8.29 0c0,60.91 0.07,121.84 0.03,182.74 -0.04,61.38 -11.23,102.27 -2.93,169.62 12.15,98.6 2.81,256.85 2.81,362.02z"/>
   </g>
  </g>
 </g>
</svg>
