<?xml version="1.0" encoding="UTF-8"?>
<!DOCTYPE svg PUBLIC "-//W3C//DTD SVG 1.1//EN" "http://www.w3.org/Graphics/SVG/1.1/DTD/svg11.dtd">
<!-- Creator: CorelDRAW 2017 -->
<svg xmlns="http://www.w3.org/2000/svg" xml:space="preserve" width="15.2398mm" height="4.4872mm" version="1.1" style="shape-rendering:geometricPrecision; text-rendering:geometricPrecision; image-rendering:optimizeQuality; fill-rule:evenodd; clip-rule:evenodd"
viewBox="0 0 1523.98 448.72"
 xmlns:xlink="http://www.w3.org/1999/xlink">
 <defs>
  <style type="text/css">
   <![CDATA[
    .fil1 {fill:#E6E7E8}
    .fil0 {fill:#E6E7E8;fill-rule:nonzero}
   ]]>
  </style>
 </defs>
 <g id="Capa_x0020_1">
  <metadata id="CorelCorpID_0Corel-Layer"/>
  <g id="_1396712128224">
   <path class="fil0" d="M904.15 386.02c-3.71,0 -6.93,-0.8 -9.68,-2.4 -2.74,-1.6 -4.85,-3.88 -6.32,-6.84 -1.48,-2.97 -2.21,-6.45 -2.21,-10.45 0,-4 0.73,-7.48 2.21,-10.44 1.47,-2.96 3.58,-5.24 6.32,-6.82 2.75,-1.58 5.97,-2.37 9.68,-2.37 2.62,0 5.05,0.41 7.31,1.23 2.25,0.82 4.16,1.99 5.72,3.52l-1.96 4.14c-1.78,-1.49 -3.55,-2.56 -5.32,-3.22 -1.76,-0.65 -3.66,-0.98 -5.7,-0.98 -3.99,0 -7.08,1.29 -9.24,3.87 -2.16,2.58 -3.24,6.27 -3.24,11.07 0,4.8 1.08,8.5 3.24,11.1 2.16,2.6 5.25,3.9 9.24,3.9 2.04,0 3.94,-0.33 5.7,-0.98 1.77,-0.66 3.54,-1.73 5.32,-3.22l1.96 4.14c-1.56,1.53 -3.47,2.7 -5.72,3.52 -2.26,0.82 -4.69,1.23 -7.31,1.23zm23.76 -0.44l0 -38.44 5.62 0 0 33.75 18.65 0 0 4.69 -24.27 0zm47.49 0.44c-5.13,0 -9.02,-1.33 -11.67,-3.98 -2.66,-2.66 -3.98,-6.57 -3.98,-11.73l0 -23.17 5.56 0 0 23.55c0,3.53 0.84,6.2 2.53,8.02 1.69,1.82 4.21,2.73 7.56,2.73 3.3,0 5.81,-0.91 7.52,-2.73 1.71,-1.82 2.56,-4.49 2.56,-8.02l0 -23.55 5.57 0 0 23.17c0,5.13 -1.34,9.03 -4.01,11.7 -2.67,2.67 -6.55,4.01 -11.64,4.01zm50.7 -20.23c2.21,0.62 3.93,1.72 5.15,3.32 1.22,1.6 1.83,3.6 1.83,6 0,3.31 -1.14,5.88 -3.41,7.72 -2.27,1.83 -5.44,2.75 -9.52,2.75l-16.68 0 0 -38.44 16.08 0c3.97,0 7.06,0.88 9.3,2.64 2.24,1.77 3.36,4.23 3.36,7.39 0,2.04 -0.54,3.8 -1.61,5.29 -1.08,1.49 -2.58,2.6 -4.5,3.33zm-17.13 -2.02l9.71 0c5.38,0 8.07,-2.04 8.07,-6.11 0,-2.03 -0.66,-3.54 -1.99,-4.52 -1.32,-0.99 -3.35,-1.48 -6.08,-1.48l-9.71 0 0 12.11zm10.58 17.29c2.8,0 4.86,-0.51 6.17,-1.53 1.3,-1.02 1.96,-2.6 1.96,-4.75 0,-2.18 -0.66,-3.8 -1.99,-4.88 -1.33,-1.07 -3.37,-1.61 -6.14,-1.61l-10.58 0 0 12.77 10.58 0zm39.03 -33.92l15.93 0c4.07,0 7.23,1 9.49,3 2.25,2 3.38,4.83 3.38,8.5 0,3.64 -1.13,6.47 -3.38,8.51 -2.26,2.04 -5.42,3.05 -9.49,3.05l-10.31 0 0 15.38 -5.62 0 0 -38.44zm15.33 18.54c5.38,0 8.07,-2.35 8.07,-7.04 0,-4.65 -2.69,-6.98 -8.07,-6.98l-9.71 0 0 14.02 9.71 0zm49.28 19.9l-4.09 -9.49 -19.47 0 -4.09 9.49 -5.67 0 17.13 -38.44 4.68 0 17.13 38.44 -5.62 0zm-21.65 -13.96l15.65 0 -7.8 -18.21 -7.85 18.21zm67.23 13.96l-6.22 0 -6.54 -12.32c-0.73,-1.31 -1.59,-2.23 -2.59,-2.76 -1,-0.52 -2.32,-0.79 -3.96,-0.79l-6.32 0 0 15.87 -5.57 0 0 -38.44 16.36 0c4.26,0 7.5,0.94 9.74,2.83 2.23,1.89 3.35,4.66 3.35,8.29 0,2.95 -0.83,5.36 -2.48,7.25 -1.65,1.89 -4.01,3.09 -7.06,3.6 1.89,0.58 3.45,2 4.69,4.26l6.6 12.21zm-15.49 -20.39c2.84,0 4.93,-0.56 6.3,-1.67 1.36,-1.11 2.04,-2.82 2.04,-5.15 0,-2.33 -0.67,-4.03 -2.02,-5.1 -1.34,-1.07 -3.45,-1.61 -6.32,-1.61l-10.2 0 0 13.53 10.2 0zm54.68 20.39l-4.09 -9.49 -19.47 0 -4.09 9.49 -5.67 0 17.13 -38.44 4.68 0 17.13 38.44 -5.62 0zm-21.65 -13.96l15.65 0 -7.8 -18.21 -7.85 18.21zm77.48 -24.48l5.56 0 0 38.44 -5.56 0 0 -17.23 -21.49 0 0 17.23 -5.56 0 0 -38.44 5.56 0 0 16.63 21.49 0 0 -16.63zm34.78 38.88c-3.64,0 -6.79,-0.8 -9.46,-2.4 -2.68,-1.6 -4.74,-3.87 -6.19,-6.82 -1.46,-2.94 -2.19,-6.42 -2.19,-10.41 0,-4.04 0.72,-7.54 2.16,-10.5 1.43,-2.96 3.5,-5.24 6.19,-6.82 2.69,-1.58 5.85,-2.37 9.49,-2.37 3.67,0 6.85,0.79 9.54,2.37 2.69,1.58 4.75,3.86 6.19,6.82 1.43,2.96 2.15,6.44 2.15,10.44 0,4 -0.72,7.48 -2.15,10.45 -1.44,2.96 -3.5,5.24 -6.19,6.84 -2.69,1.6 -5.87,2.4 -9.54,2.4zm0 -4.58c3.85,0 6.85,-1.31 8.99,-3.93 2.15,-2.62 3.22,-6.34 3.22,-11.18 0,-4.83 -1.06,-8.55 -3.19,-11.15 -2.12,-2.6 -5.13,-3.9 -9.02,-3.9 -3.82,0 -6.79,1.3 -8.92,3.9 -2.13,2.6 -3.19,6.32 -3.19,11.15 0,4.84 1.06,8.56 3.19,11.18 2.13,2.62 5.1,3.93 8.92,3.93zm61.66 -34.3l4.47 0 0 38.44 -5.07 0 0.05 -27.81 -11.45 21.65 -3.82 0 -11.5 -21.38 0.05 27.54 -5.07 0 0 -38.44 4.53 0 13.96 26.61 13.85 -26.61zm39.85 18.65c2.21,0.62 3.93,1.72 5.15,3.32 1.22,1.6 1.83,3.6 1.83,6 0,3.31 -1.14,5.88 -3.41,7.72 -2.27,1.83 -5.45,2.75 -9.52,2.75l-16.68 0 0 -38.44 16.08 0c3.97,0 7.06,0.88 9.3,2.64 2.24,1.77 3.35,4.23 3.35,7.39 0,2.04 -0.53,3.8 -1.61,5.29 -1.07,1.49 -2.57,2.6 -4.49,3.33zm-17.13 -2.02l9.71 0c5.38,0 8.07,-2.04 8.07,-6.11 0,-2.03 -0.66,-3.54 -1.99,-4.52 -1.33,-0.99 -3.35,-1.48 -6.08,-1.48l-9.71 0 0 12.11zm10.58 17.29c2.8,0 4.86,-0.51 6.17,-1.53 1.3,-1.02 1.96,-2.6 1.96,-4.75 0,-2.18 -0.67,-3.8 -1.99,-4.88 -1.33,-1.07 -3.38,-1.61 -6.14,-1.61l-10.58 0 0 12.77 10.58 0zm55.83 4.52l-6.22 0 -6.54 -12.32c-0.73,-1.31 -1.59,-2.23 -2.59,-2.76 -1,-0.52 -2.32,-0.79 -3.95,-0.79l-6.33 0 0 15.87 -5.56 0 0 -38.44 16.36 0c4.25,0 7.49,0.94 9.73,2.83 2.24,1.89 3.35,4.66 3.35,8.29 0,2.95 -0.82,5.36 -2.48,7.25 -1.65,1.89 -4.01,3.09 -7.06,3.6 1.89,0.58 3.45,2 4.69,4.26l6.6 12.21zm-15.49 -20.39c2.84,0 4.94,-0.56 6.3,-1.67 1.36,-1.11 2.05,-2.82 2.05,-5.15 0,-2.33 -0.68,-4.03 -2.02,-5.1 -1.35,-1.07 -3.46,-1.61 -6.33,-1.61l-10.2 0 0 13.53 10.2 0zm25.67 20.39l0 -38.44 24.98 0 0 4.52 -19.47 0 0 12.11 18.38 0 0 4.58 -18.38 0 0 12.71 19.47 0 0 4.52 -24.98 0zm47.7 0.44c-2.98,0 -5.71,-0.4 -8.2,-1.2 -2.49,-0.8 -4.63,-1.98 -6.41,-3.55l2.02 -4.14c1.89,1.53 3.84,2.63 5.86,3.3 2.02,0.67 4.28,1.01 6.79,1.01 2.87,0 5.09,-0.54 6.65,-1.61 1.56,-1.07 2.35,-2.59 2.35,-4.55 0,-1.68 -0.73,-2.92 -2.19,-3.74 -1.45,-0.82 -3.78,-1.59 -6.97,-2.32 -3.06,-0.65 -5.57,-1.4 -7.53,-2.23 -1.96,-0.84 -3.5,-1.97 -4.61,-3.41 -1.11,-1.44 -1.66,-3.26 -1.66,-5.48 0,-2.26 0.59,-4.24 1.77,-5.95 1.18,-1.7 2.86,-3.04 5.04,-4 2.19,-0.97 4.71,-1.45 7.59,-1.45 2.68,0 5.22,0.41 7.6,1.23 2.38,0.82 4.34,1.99 5.86,3.52l-1.96 4.14c-1.78,-1.45 -3.61,-2.54 -5.48,-3.24 -1.87,-0.71 -3.86,-1.07 -5.97,-1.07 -2.76,0 -4.94,0.57 -6.52,1.72 -1.58,1.14 -2.37,2.73 -2.37,4.77 0,1.75 0.69,3.06 2.07,3.95 1.38,0.9 3.6,1.7 6.66,2.43 3.2,0.73 5.78,1.48 7.77,2.26 1.98,0.79 3.56,1.86 4.74,3.22 1.18,1.36 1.77,3.14 1.77,5.32 0,2.21 -0.59,4.16 -1.77,5.83 -1.18,1.67 -2.87,2.96 -5.07,3.87 -2.2,0.91 -4.81,1.37 -7.83,1.37z"/>
   <path class="fil0" d="M166.72 300.1l0 -159.34 103.52 0 0 18.76 -80.69 0 0 50.17 76.17 0 0 18.99 -76.17 0 0 52.66 80.69 0 0 18.76 -103.52 0zm147.77 -159.34l66 0c16.88,0 29.99,4.14 39.33,12.43 9.34,8.28 14.01,20.04 14.01,35.26 0,15.07 -4.67,26.82 -14.01,35.26 -9.34,8.44 -22.45,12.65 -39.33,12.65l-42.72 0 0 63.74 -23.28 0 0 -159.34zm63.52 76.84c22.3,0 33.45,-9.72 33.45,-29.15 0,-19.29 -11.15,-28.93 -33.45,-28.93l-40.24 0 0 58.08 40.24 0z"/>
   <polygon class="fil0" points="951.5,280.06 1041.01,280.06 1041.01,299.05 925.05,299.05 925.05,281.87 1012.07,158.69 925.05,158.69 925.05,139.7 1038.75,139.7 1038.75,156.65 "/>
   <path class="fil0" d="M1232.92 142.73l66 0c16.87,0 29.98,4.14 39.32,12.43 9.35,8.29 14.02,20.04 14.02,35.26 0,15.07 -4.67,26.82 -14.02,35.26 -9.34,8.44 -22.45,12.66 -39.32,12.66l-42.72 0 0 63.74 -23.28 0 0 -159.35zm63.51 76.85c22.3,0 33.45,-9.72 33.45,-29.16 0,-19.29 -11.15,-28.93 -33.45,-28.93l-40.23 0 0 58.09 40.23 0zm204.28 82.5l-16.95 -39.33 -80.69 0 -16.96 39.33 -23.5 0 70.97 -159.35 19.44 0 70.97 159.35 -23.28 0zm-89.73 -57.87l64.87 0 -32.33 -75.49 -32.54 75.49z"/>
   <polygon class="fil0" points="53.79,295.12 53.79,155.21 -0.01,155.21 -0.01,135.78 131.31,135.78 131.31,155.21 77.29,155.21 77.29,295.12 "/>
   <path class="fil0" d="M1129.88 297.83c-12.36,0 -23.7,-1.66 -34.02,-4.98 -10.32,-3.31 -19.18,-8.21 -26.56,-14.69l8.36 -17.18c7.84,6.33 15.94,10.89 24.3,13.68 8.36,2.78 17.74,4.18 28.14,4.18 11.91,0 21.1,-2.22 27.58,-6.67 6.48,-4.44 9.72,-10.74 9.72,-18.87 0,-6.93 -3.02,-12.09 -9.05,-15.49 -6.02,-3.38 -15.67,-6.59 -28.93,-9.6 -12.65,-2.71 -23.05,-5.8 -31.19,-9.27 -8.13,-3.46 -14.5,-8.17 -19.1,-14.12 -4.59,-5.96 -6.89,-13.53 -6.89,-22.72 0,-9.34 2.45,-17.55 7.35,-24.64 4.89,-7.08 11.86,-12.62 20.9,-16.61 9.04,-3.99 19.52,-5.99 31.42,-5.99 11.15,0 21.66,1.7 31.53,5.09 9.87,3.39 17.97,8.25 24.3,14.57l-8.14 17.18c-7.38,-6.02 -14.95,-10.51 -22.71,-13.45 -7.77,-2.93 -16.01,-4.4 -24.75,-4.4 -11.46,0 -20.46,2.37 -27.01,7.12 -6.56,4.74 -9.84,11.34 -9.84,19.77 0,7.24 2.87,12.7 8.59,16.39 5.73,3.69 14.92,7.05 27.58,10.06 13.26,3.01 24,6.14 32.21,9.38 8.21,3.24 14.76,7.68 19.66,13.34 4.9,5.64 7.35,12.99 7.35,22.03 0,9.19 -2.45,17.25 -7.35,24.19 -4.9,6.93 -11.9,12.28 -21.02,16.04 -9.12,3.77 -19.93,5.66 -32.43,5.66z"/>
   <path class="fil1" d="M657.74 0.75c-114.78,10.85 -214.43,118.65 -199.04,248.72 13.56,114.57 115.88,212.73 247.75,198.17 115.08,-12.71 214.2,-116.95 198.99,-248.4 -13.45,-116.32 -115.31,-211 -247.7,-198.49zm-127.63 371.85c3.01,7.3 11.72,12.4 20.92,20.02 20.72,17.16 56.89,34.63 84.2,39.75 -4.15,-10.72 -10.44,-12.78 -16.92,-20.39 -14.39,-16.93 -48.11,-38.89 -69.46,-50.07 -5.43,2.29 -10.66,6.59 -18.74,10.69zm-45.87 -69.27c11.18,41.11 25.05,28.74 84.03,63.96 19.43,11.6 47.21,32.58 61.49,49.39 2.76,3.25 5.59,6.03 8.35,9.75 3.83,5.14 2.88,6.86 11.84,8.54 -9.28,-29.56 -52.14,-70.9 -70.85,-88.55 -22.8,-21.51 -19.1,-14.39 -34.66,-13.04 -21.52,1.86 -18.13,-2.1 -51.29,-19.24l6.08 -17.12 -14.99 6.31zm167.32 120.29c-4.51,-16.88 -23.31,-46.76 -32.01,-59.17 -6.68,-9.53 -13.1,-18.01 -19.73,-26.68 -6.66,-8.7 -16.26,-18.42 -20.36,-26.31 -19.57,1.07 -21.43,7.24 -36.69,-9.41 -15.3,-16.69 3.34,-16.18 -28.17,-24.48 4.03,-5.3 2.74,-2.26 9.21,-6.92 3.57,-2.58 1.64,-0.87 4.05,-3.33l-25.37 0.75c-5.83,-5.94 -13.47,-15.46 -16.38,-24.69l13.96 -4.89c-5.85,-2.1 -16.59,-2.54 -20.44,-4.49 -5.39,-2.72 -6.33,-9.94 -10.89,-15.13 -1.17,56.97 4.7,43 33.57,63.2l82.56 62.58c12.14,9.86 36.23,36.77 46.79,49.97 7.98,9.97 12.83,19.76 19.9,29zm14.8 -1.5c-3.87,-51.43 -31.03,-111.88 -39.27,-150.9 -15.04,-0.73 -14.31,0.24 -23.76,-6.88 3.95,30.87 -6.62,9.78 10.56,39.12 14.98,25.56 26.37,47.53 36.91,76.02l15.56 42.64zm204.56 -107.98c-33.87,16.3 -26.79,21.01 -49.72,19.32 -15.56,-1.15 -15.38,-5.27 -25.55,3.62 -7.81,6.83 -11.63,9.42 -18.95,17.38l-26.34 26.08c-11.07,11.32 -30.01,38.01 -36.28,54.42 10.97,-2.18 11.32,-9.41 19.07,-17.1 21.78,-21.62 32.52,-32.21 61.06,-49.77 16.16,-9.95 31.48,-17.69 48.98,-25.68 8.8,-4.01 19.14,-5.7 24.08,-12.32 4.38,-5.85 10.13,-18.65 12.18,-26.03l-13.69 -7.24c0.24,9.09 3.89,9 5.16,17.32zm-6.21 -77.04c5.22,4.79 6.69,4.83 13.36,6.14 -3.32,10.12 -9.89,19.22 -16.75,24.62l-22.75 1.83 11.17 5.64c-5.23,5.31 -12.57,5.23 -19.88,7.31 -5.76,22.98 -19.74,37.45 -42.92,28.19 -18.19,18.71 -70.52,86.3 -77.81,121.43 1,-5.44 13.54,-23.88 17.23,-29.45 24.03,-36.21 46.65,-50.85 74.78,-76.24 16.32,-14.73 39.64,-29.11 58.26,-42.62 29.94,-21.74 38.67,-8.74 35.99,-65.31 -15.57,18.06 3.05,13.78 -30.68,18.46zm-135.96 195.24c38.27,-7.99 80.86,-30.58 105.49,-59.74 -9.78,-5.54 -9.25,-4.22 -17.27,-10.77 -19.41,6.06 -44.35,27.16 -59.87,39.58 -11.13,8.91 -21.17,17.33 -28.35,30.93zm8.82 -161.38c-13.52,42.8 -36.02,105.16 -39.87,151.38 4.51,-6.13 11,-30.97 14.89,-41.21 9.26,-24.3 23.01,-53.25 36.05,-74.93 20.04,-33.34 7.55,-12.32 12.14,-41.69 -12.13,8.55 -8.26,6.09 -23.21,6.45zm-28.32 -14.44c-5.44,51.23 -20.04,121.38 -18.28,172.17 3.23,-31.82 22.4,-100.97 33.47,-134.43 15.14,-45.8 2.96,-17.48 3.11,-46.65 -0.71,0.3 -17.6,8.46 -18.3,8.91zm-24.37 -8.44l-0.32 175.1c5.41,-25.7 7.21,-66.74 10.55,-95.85 1.77,-15.37 3.79,-31.28 5.81,-46.24 3.97,-29.36 5.41,-19.4 -4.91,-43.13l-11.13 10.12zm-5.58 187.82l0.58 -188.29c-2.47,-1.27 -4.41,-2.41 -6.27,-3.68l-6.51 -4.6c-2.67,9.74 -6.63,11.36 -7.15,18.15 -0.35,4.53 2.57,19.32 3.34,24.93 2.28,16.66 4.43,33.09 6.29,49.98 3.75,34.09 7.9,68.95 9.72,103.51zm-6.27 -7.25c1.12,-54.02 -12.83,-118.44 -18.19,-172.58 -6.66,-3.04 -12.96,-5.47 -18.04,-9.04 -0.8,10.99 -4.92,18.39 -5.04,22.73l20.34 66.02c7.87,28.55 17.07,63.55 20.93,92.87zm-203.31 -227.41c0.27,0.14 0.81,-0.32 0.9,-0.03 2.17,7.78 -2.06,-7.21 11.47,6.23 23.6,23.46 44.7,41.99 67.71,67.44 8.76,9.69 18.19,17.59 26.8,27.57 24.27,28.14 70.71,82.88 84.45,129.87 -1.44,-31.64 -45.75,-123.06 -61.8,-142.2 -20.36,2.86 -28.25,-2.42 -45.75,-28.4l16.38 -9.66 -25.8 0.41c-2.52,-7.99 -6.55,-8.98 -9.13,-16.95l18.87 -12.21 -23.12 0.03 -14.65 -28.11 12.39 -4.85c-16.25,-4.14 -21.4,-1.65 -20.33,-27.51 1.04,-25.24 24.89,-8.2 33.64,1.11 11.67,12.4 10.74,15.68 10.76,35.54 4.36,-3.68 3.52,-4.82 8.16,-6.71 3,7.74 17.6,26.8 24.87,32.28l-3.94 -14.18c2.49,-0.22 6.3,-0.26 8.72,-0.74l8.15 -3.21c-31.05,-4.48 -26.64,-2.37 -38.89,-55.63 5.88,-1.3 9.29,-1.3 14.22,-4.84 -7.44,-1.5 -13.87,-1.89 -18.91,-5.72 -9.68,-12.49 3.39,-56.63 37.03,-4.82 19.71,30.38 6.84,19.99 9.82,48.43l8.82 -11.01c5.02,7.6 8.66,14.36 12.88,21.52l17.44 -4.06c-8.08,-2.75 -16.86,-0.11 -21.2,-6.56 2.46,-7.59 7.28,-5.27 15.27,-5.87 -0.49,-0.5 -1.25,-1.85 -1.58,-1.39l-6.23 -4.04c-1.17,-0.52 -7.86,-2.16 -9.35,-2.56l-4.16 -19.64c0.13,-0.19 0.9,-0.87 1.15,-0.43l11.74 -4.07 -16.29 -3.69c-3.36,-16.17 -10.96,-50.29 3.13,-61.17 14.36,1.21 19.55,22.09 25.4,35.88 7.19,16.92 15.04,28.39 18.34,46.94l2.35 -7.31c0.44,-2.23 0.61,-6.58 1.01,-9.31l13.59 3.68c-8.43,-17.21 -13.97,-5.75 -10.04,-34.56l11.58 5.61c-6.74,-14.29 -13.73,-10.36 -8.37,-32.4 3.23,-13.32 5.16,-25.14 19.14,-25.58 10.65,12.85 12.36,41.51 14.37,62.29l-11.69 14.09 13.04 -2.14c1.74,32.27 3.52,26.45 -13.25,43.74l15.08 -3.02c2.61,-20.47 10.12,-39.15 17.97,-55.05 7.15,-14.49 13.16,-42.73 29.44,-42.79 7.91,7.97 7.01,25.93 6.28,38.97 -1.2,21.44 -1.21,22.54 -20.32,25.81 0.54,0.32 1.43,-0.06 1.77,0.69l11.67 3.9 -4.5 19.91 -12.59 4.05c-3.55,2.08 -2.11,1.06 -4.64,3.5 9.29,0.77 12.89,-2.29 15.34,6.34 -4.46,5.9 -12.47,4.02 -21.19,5.73l17.07 5.14 13.38 -22.31 9.53 10.6c-3.7,-31.23 -1.22,-39.01 21.85,-62.96 27.65,-28.71 33.16,15.1 20.3,22 -1.67,0.89 -2.39,1.15 -4.52,1.78 -2.72,0.8 -7.57,1.46 -10.49,2.01 0.47,0.33 1.21,0.16 1.48,0.84l12.98 3.47c-12.37,56.15 -8.57,49.37 -39.14,56.42 0.48,0.09 1.32,-0.15 1.66,0.63 1.37,3.15 12.12,2.93 15.33,3.23l-4.78 14.45c11.13,-8.23 17.62,-20.94 25.94,-31.71l3.44 1.2c6.59,1.15 -1.98,3.65 4.74,0.03 -3.27,-26.45 22.27,-49.22 41.45,-44.52 3.86,11.98 2.19,22.38 -1.32,35.27l-16.57 4.22 12.68 4.32c-2.12,5.84 -12.36,25.56 -15.05,28.8l-23.1 0.01 9.1 6.23c3.89,2.16 6.37,3.26 9.99,5.99 -2.98,7.64 -6.22,9.52 -9.26,16.77l-25.04 -1.35 16.23 10.11c-3.4,5.66 -13.62,17.48 -17.62,21.49 -9.58,9.61 -13.13,10.44 -29.48,7.02 -6.24,15.73 -24.48,41.92 -33.2,61.31 -8.56,19.03 -22.15,49.3 -25.32,70.87 6.5,-6.48 13.75,-25.05 18.53,-33.43 6.73,-11.82 12.74,-20.66 20.32,-31.95 16.61,-24.75 37.62,-47.63 57.5,-69.49l65.44 -65.66c5.38,-4.84 8.65,-7.49 13.32,-12.89 5.63,-6.51 8.51,-5.43 13.7,-9.09 -12.62,-78.85 -56.2,-139.32 -127.81,-171.25 -89.7,-39.98 -199.07,-6.05 -253.06,65.2 -6.65,8.78 -13.28,18.85 -19.62,30.73 -12.41,23.27 -20.08,47.43 -24,77.33z"/>
  </g>
 </g>
</svg>
