<?xml version="1.0" encoding="UTF-8"?>
<!DOCTYPE svg PUBLIC "-//W3C//DTD SVG 1.1//EN" "http://www.w3.org/Graphics/SVG/1.1/DTD/svg11.dtd">
<!-- Creator: CorelDRAW 2017 -->
<svg xmlns="http://www.w3.org/2000/svg" xml:space="preserve" width="215.9mm" height="279.4mm" version="1.1" style="shape-rendering:geometricPrecision; text-rendering:geometricPrecision; image-rendering:optimizeQuality; fill-rule:evenodd; clip-rule:evenodd"
viewBox="0 0 21590 27940"
 xmlns:xlink="http://www.w3.org/1999/xlink">
 <defs>
  <style type="text/css">
   <![CDATA[
    .fil1 {fill:none}
    .fil0 {fill:#FEFEFE}
    .fil4 {fill:#E6E7E8}
    .fil2 {fill:#BDBFC1}
    .fil5 {fill:#4EF298}
    .fil3 {fill:#EE4552}
   ]]>
  </style>
    <clipPath id="id0">
     <path d="M10490.19 13665.19l609.62 0 0 609.62 -609.62 0 0 -609.62z"/>
    </clipPath>
    <clipPath id="id1">
     <path d="M10783.26 13744.68c-81.27,18.36 -57.47,140.77 25.58,125.86 8.64,-1.55 17.26,-5.45 21.86,-8.55 62.95,-42.46 18.92,-132.32 -47.44,-117.31z"/>
    </clipPath>
    <clipPath id="id2">
     <path d="M10781.17 13907.28c-81.27,18.36 -57.47,140.77 25.58,125.86 8.64,-1.55 17.26,-5.45 21.86,-8.55 62.95,-42.46 18.92,-132.32 -47.44,-117.31z"/>
    </clipPath>
    <clipPath id="id3">
     <path d="M10779.08 14069.88c-81.27,18.36 -57.47,140.77 25.58,125.86 8.64,-1.55 17.26,-5.45 21.86,-8.55 62.95,-42.46 18.92,-132.32 -47.44,-117.31z"/>
    </clipPath>
   <clipPath id="id4">
    <path d="M10785.04 13590.53c-17.67,-51.5 -33.3,-76.62 -33.27,-153.08 0.1,-182.01 106.44,-249.49 130.66,-46.91 8.71,72.82 -2.28,106.44 -21.42,179.82l26.06 5.16c21.62,-56.85 62.77,-118.53 99.85,-142.79 30.51,-19.96 130.66,-40.89 178.28,0.73 30.27,26.47 10.72,54.02 -21.73,63.09 -82.48,23.08 -75.21,32.23 -132.7,82.99 -25.11,22.18 -41.49,25.52 -66.51,43.42 4.58,23.18 29.85,60.18 -0.84,111.32 -48.45,-33.91 -88.26,-59.25 -158.85,-53.15 -11.71,1.01 -17.4,3.16 -27.04,4.25 -51.57,5.87 7.03,-81.38 27.51,-94.85z"/>
   </clipPath>
 </defs>
 <g id="Capa_x0020_1">
  <metadata id="CorelCorpID_0Corel-Layer"/>
  <g id="_2692638054352">
   <g style="clip-path:url(#id0)">
    <image x="10490.19" y="13665.19" width="609.62" height="609.62" xlink:href="menu_Images\menu_ImgID1.png"/>
   </g>
  </g>
  <circle class="fil0" cx="10795" cy="13970" r="254.01"/>
  <g id="_2692638118352">
   <path class="fil1" d="M10783.26 13744.68c-81.27,18.36 -57.47,140.77 25.58,125.86 8.64,-1.55 17.26,-5.45 21.86,-8.55 62.95,-42.46 18.92,-132.32 -47.44,-117.31z"/>
   <path id="1" class="fil2" d="M10783.26 13744.68c-81.27,18.36 -57.47,140.77 25.58,125.86 8.64,-1.55 17.26,-5.45 21.86,-8.55 62.95,-42.46 18.92,-132.32 -47.44,-117.31z"/>
   <g style="clip-path:url(#id1)">
    <g>
     <path id="2" class="fil3" d="M10797.1 13900.8c98.44,11.45 170.21,89.85 160.3,175.12 -9.91,85.26 -97.75,145.11 -196.19,133.67 -98.43,-11.44 -170.2,-89.84 -160.29,-175.11 9.9,-85.27 97.74,-145.12 196.18,-133.68z"/>
    </g>
   </g>
   <path class="fil1" d="M10781.17 13907.28c-81.27,18.36 -57.47,140.77 25.58,125.86 8.64,-1.55 17.26,-5.45 21.86,-8.55 62.95,-42.46 18.92,-132.32 -47.44,-117.31z"/>
   <path id="1" class="fil2" d="M10781.17 13907.28c-81.27,18.36 -57.47,140.77 25.58,125.86 8.64,-1.55 17.26,-5.45 21.86,-8.55 62.95,-42.46 18.92,-132.32 -47.44,-117.31z"/>
   <g style="clip-path:url(#id2)">
    <g>
     <path id="2" class="fil3" d="M10795.01 14063.4c98.44,11.45 170.21,89.85 160.3,175.12 -9.91,85.26 -97.75,145.11 -196.19,133.67 -98.43,-11.44 -170.2,-89.84 -160.29,-175.11 9.9,-85.27 97.74,-145.12 196.18,-133.68z"/>
    </g>
   </g>
   <path class="fil1" d="M10779.08 14069.88c-81.27,18.36 -57.47,140.77 25.58,125.86 8.64,-1.55 17.26,-5.45 21.86,-8.55 62.95,-42.46 18.92,-132.32 -47.44,-117.31z"/>
   <path id="1" class="fil2" d="M10779.08 14069.88c-81.27,18.36 -57.47,140.77 25.58,125.86 8.64,-1.55 17.26,-5.45 21.86,-8.55 62.95,-42.46 18.92,-132.32 -47.44,-117.31z"/>
   <g style="clip-path:url(#id3)">
    <g>
     <path id="2" class="fil3" d="M10792.92 14226c98.44,11.45 170.21,89.85 160.3,175.12 -9.91,85.26 -97.75,145.11 -196.19,133.67 -98.43,-11.44 -170.2,-89.84 -160.29,-175.11 9.9,-85.27 97.74,-145.12 196.18,-133.68z"/>
    </g>
   </g>
  </g>
  <path class="fil1" d="M10785.04 13590.53c-17.67,-51.5 -33.3,-76.62 -33.27,-153.08 0.1,-182.01 106.44,-249.49 130.66,-46.91 8.71,72.82 -2.28,106.44 -21.42,179.82l26.06 5.16c21.62,-56.85 62.77,-118.53 99.85,-142.79 30.51,-19.96 130.66,-40.89 178.28,0.73 30.27,26.47 10.72,54.02 -21.73,63.09 -82.48,23.08 -75.21,32.23 -132.7,82.99 -25.11,22.18 -41.49,25.52 -66.51,43.42 4.58,23.18 29.85,60.18 -0.84,111.32 -48.45,-33.91 -88.26,-59.25 -158.85,-53.15 -11.71,1.01 -17.4,3.16 -27.04,4.25 -51.57,5.87 7.03,-81.38 27.51,-94.85z"/>
  <path id="1" class="fil4" d="M10785.04 13590.53c-17.67,-51.5 -33.3,-76.62 -33.27,-153.08 0.1,-182.01 106.44,-249.49 130.66,-46.91 8.71,72.82 -2.28,106.44 -21.42,179.82l26.06 5.16c21.62,-56.85 62.77,-118.53 99.85,-142.79 30.51,-19.96 130.66,-40.89 178.28,0.73 30.27,26.47 10.72,54.02 -21.73,63.09 -82.48,23.08 -75.21,32.23 -132.7,82.99 -25.11,22.18 -41.49,25.52 -66.51,43.42 4.58,23.18 29.85,60.18 -0.84,111.32 -48.45,-33.91 -88.26,-59.25 -158.85,-53.15 -11.71,1.01 -17.4,3.16 -27.04,4.25 -51.57,5.87 7.03,-81.38 27.51,-94.85z"/>
  <g style="clip-path:url(#id4)">
   <g id="_2692638118480">
    <path id="2" class="fil5" d="M10595.92 13449.05c80.29,14.03 134,90.49 119.97,170.77 -14.03,80.29 -90.49,133.99 -170.78,119.97 -80.28,-14.04 -133.99,-90.5 -119.96,-170.78 14.03,-80.28 90.49,-133.99 170.77,-119.96z"/>
   </g>
  </g>
 </g>
</svg>
