<?xml version="1.0" encoding="UTF-8"?>
<!DOCTYPE svg PUBLIC "-//W3C//DTD SVG 1.1//EN" "http://www.w3.org/Graphics/SVG/1.1/DTD/svg11.dtd">
<!-- Creator: CorelDRAW 2017 -->
<svg xmlns="http://www.w3.org/2000/svg" xml:space="preserve" width="17.7798mm" height="2.9632mm" version="1.1" style="shape-rendering:geometricPrecision; text-rendering:geometricPrecision; image-rendering:optimizeQuality; fill-rule:evenodd; clip-rule:evenodd"
viewBox="0 0 1777.98 296.32"
 xmlns:xlink="http://www.w3.org/1999/xlink">
 <defs>
  <style type="text/css">
   <![CDATA[
    .fil2 {fill:none}
    .fil0 {fill:#FEFEFE}
    .fil1 {fill:#2C2B30}
    .fil6 {fill:#004DFD}
    .fil10 {fill:#008125}
    .fil9 {fill:#760789}
    .fil5 {fill:#E8443B}
    .fil3 {fill:#EE4552}
    .fil7 {fill:#FEED01}
    .fil8 {fill:#FF8B00}
    .fil4 {fill:#FEFEFE;fill-rule:nonzero}
    .fil11 {fill:#D2D3D5;fill-rule:nonzero}
   ]]>
  </style>
   <clipPath id="id0">
    <path d="M67.58 167.33c-10.15,-18.41 -17.76,-26.93 -22.83,-56.01 -12.06,-69.23 23.9,-101.96 46.57,-26.52 8.15,27.11 6.21,40.63 3.81,69.81l10.25 0.23c4.45,-23.06 15.99,-49.25 28.49,-60.94 10.27,-9.62 46.97,-24.24 67.85,-11.57 13.27,8.05 7.67,19.83 -4.07,25.44 -29.84,14.25 -26.46,17.25 -44.95,40.38 -8.08,10.1 -14.09,12.46 -22.42,20.93 3.29,8.52 15.36,20.91 7.08,42.39 -20.67,-9.67 -37.5,-16.66 -63.94,-9.65 -4.39,1.16 -6.41,2.36 -10.01,3.41 -19.22,5.66 -2.73,-31.41 4.17,-37.9z"/>
   </clipPath>
   <clipPath id="id1">
    <path d="M88.57 221.11c-21.07,7.41 -10.94,39.27 10.71,32.72 2.25,-0.68 4.43,-1.98 5.56,-2.95 15.45,-13.25 0.94,-35.81 -16.27,-29.77z"/>
   </clipPath>
   <clipPath id="id2">
    <path d="M304.49 89.6c-21.9,7.7 -11.37,40.81 11.13,34.01 2.34,-0.71 4.6,-2.06 5.78,-3.07 16.05,-13.77 0.97,-37.22 -16.91,-30.94z"/>
   </clipPath>
   <clipPath id="id3">
    <path d="M347.96 89.61c-21.9,7.7 -11.38,40.81 11.13,34.01 2.34,-0.71 4.6,-2.07 5.77,-3.07 16.06,-13.78 0.98,-37.23 -16.9,-30.94z"/>
   </clipPath>
 </defs>
 <g id="Capa_x0020_1">
  <metadata id="CorelCorpID_0Corel-Layer"/>
  <path class="fil0" d="M67.58 167.33c-10.15,-18.41 -17.76,-26.93 -22.83,-56.01 -12.06,-69.23 23.9,-101.96 46.57,-26.52 8.15,27.11 6.21,40.63 3.81,69.81l10.25 0.23c4.45,-23.06 15.99,-49.25 28.49,-60.94 10.27,-9.62 46.97,-24.24 67.85,-11.57 13.27,8.05 7.67,19.83 -4.07,25.44 -29.84,14.25 -26.46,17.25 -44.95,40.38 -8.08,10.1 -14.09,12.46 -22.42,20.93 3.29,8.52 15.36,20.91 7.08,42.39 -20.67,-9.67 -37.5,-16.66 -63.94,-9.65 -4.39,1.16 -6.41,2.36 -10.01,3.41 -19.22,5.66 -2.73,-31.41 4.17,-37.9z"/>
  <g style="clip-path:url(#id0)">
   <g id="_1396577330608">
    <ellipse class="fil1" cx="96.38" cy="237.43" rx="19.4" ry="17.22"/>
   </g>
  </g>
  <path class="fil2" d="M67.58 167.33c-10.15,-18.41 -17.76,-26.93 -22.83,-56.01 -12.06,-69.23 23.9,-101.96 46.57,-26.52 8.15,27.11 6.21,40.63 3.81,69.81l10.25 0.23c4.45,-23.06 15.99,-49.25 28.49,-60.94 10.27,-9.62 46.97,-24.24 67.85,-11.57 13.27,8.05 7.67,19.83 -4.07,25.44 -29.84,14.25 -26.46,17.25 -44.95,40.38 -8.08,10.1 -14.09,12.46 -22.42,20.93 3.29,8.52 15.36,20.91 7.08,42.39 -20.67,-9.67 -37.5,-16.66 -63.94,-9.65 -4.39,1.16 -6.41,2.36 -10.01,3.41 -19.22,5.66 -2.73,-31.41 4.17,-37.9z"/>
  <path class="fil0" d="M88.57 221.11c-21.07,7.41 -10.94,39.27 10.71,32.72 2.25,-0.68 4.43,-1.98 5.56,-2.95 15.45,-13.25 0.94,-35.81 -16.27,-29.77z"/>
  <g style="clip-path:url(#id1)">
   <g id="_1396577331408">
    <ellipse class="fil3" cx="97.09" cy="303.92" rx="48.1" ry="41.67"/>
   </g>
  </g>
  <path class="fil2" d="M88.57 221.11c-21.07,7.41 -10.94,39.27 10.71,32.72 2.25,-0.68 4.43,-1.98 5.56,-2.95 15.45,-13.25 0.94,-35.81 -16.27,-29.77z"/>
  <path class="fil4" d="M260.64 230.32l-20.76 -29.04 -21.48 29.04 -29.92 0 36.44 -47.7 -35.2 -46.99 30.8 0 20.06 27.63 20.59 -27.63 29.22 0 -35.2 46.29 36.61 48.4 -31.16 0zm35.76 -94.69l27.46 0 0 94.69 -27.46 0 0 -94.69zm13.73 -13.2c-5.05,0 -9.15,-1.46 -12.32,-4.4 -3.17,-2.93 -4.75,-6.57 -4.75,-10.91 0,-4.34 1.58,-7.98 4.75,-10.91 3.17,-2.94 7.27,-4.4 12.32,-4.4 5.05,0 9.15,1.41 12.32,4.22 3.17,2.82 4.75,6.34 4.75,10.56 0,4.58 -1.58,8.36 -4.75,11.35 -3.17,3 -7.27,4.49 -12.32,4.49zm30.48 13.2l27.46 0 0 94.69 -27.46 0 0 -94.69zm13.73 -13.2c-5.05,0 -9.15,-1.46 -12.32,-4.4 -3.17,-2.93 -4.75,-6.57 -4.75,-10.91 0,-4.34 1.58,-7.98 4.75,-10.91 3.17,-2.94 7.27,-4.4 12.32,-4.4 5.05,0 9.15,1.41 12.32,4.22 3.17,2.82 4.75,6.34 4.75,10.56 0,4.58 -1.58,8.36 -4.75,11.35 -3.17,3 -7.27,4.49 -12.32,4.49zm86.45 11.79c8.8,0 16.81,2.03 24.02,6.08 7.22,4.04 12.88,9.73 16.99,17.07 4.1,7.33 6.16,15.87 6.16,25.61 0,9.73 -2.06,18.27 -6.16,25.6 -4.11,7.34 -9.77,13.03 -16.99,17.08 -7.21,4.04 -15.22,6.07 -24.02,6.07 -13.02,0 -22.94,-4.11 -29.74,-12.32l0 10.91 -26.23 0 0 -130.59 27.46 0 0 45.93c6.92,-7.62 16.42,-11.44 28.51,-11.44zm-4.75 74.98c7.04,0 12.82,-2.38 17.33,-7.13 4.52,-4.75 6.78,-11.12 6.78,-19.09 0,-7.98 -2.26,-14.35 -6.78,-19.1 -4.51,-4.75 -10.29,-7.13 -17.33,-7.13 -7.04,0 -12.82,2.38 -17.34,7.13 -4.52,4.75 -6.77,11.12 -6.77,19.1 0,7.97 2.25,14.34 6.77,19.09 4.52,4.75 10.3,7.13 17.34,7.13zm109.15 0.53c4.93,0 9.3,-0.74 13.11,-2.2 3.81,-1.47 7.36,-3.79 10.65,-6.95l14.61 15.84c-8.92,10.2 -21.95,15.31 -39.08,15.31 -10.67,0 -20.12,-2.08 -28.33,-6.25 -8.22,-4.17 -14.55,-9.94 -19.01,-17.34 -4.46,-7.39 -6.69,-15.78 -6.69,-25.16 0,-9.27 2.2,-17.63 6.6,-25.08 4.4,-7.45 10.44,-13.26 18.13,-17.43 7.69,-4.16 16.34,-6.25 25.96,-6.25 9.03,0 17.25,1.91 24.64,5.72 7.39,3.82 13.29,9.33 17.69,16.55 4.4,7.21 6.6,15.75 6.6,25.61l-70.05 13.55c1.99,4.69 5.13,8.21 9.42,10.56 4.28,2.34 9.53,3.52 15.75,3.52zm-4.05 -54.74c-6.92,0 -12.55,2.23 -16.9,6.69 -4.34,4.46 -6.63,10.62 -6.86,18.48l46.11 -8.98c-1.29,-4.92 -3.93,-8.85 -7.92,-11.79 -3.99,-2.93 -8.8,-4.4 -14.43,-4.4zm84.87 -6.86c3.28,-4.58 7.71,-8.04 13.29,-10.39 5.58,-2.34 12,-3.52 19.28,-3.52l0 25.35c-3.05,-0.24 -5.11,-0.35 -6.16,-0.35 -7.87,0 -14.04,2.2 -18.49,6.6 -4.46,4.4 -6.69,11 -6.69,19.8l0 44.7 -27.46 0 0 -94.69 26.23 0 0 12.5z"/>
  <path class="fil0" d="M304.49 89.6c-21.9,7.7 -11.37,40.81 11.13,34.01 2.34,-0.71 4.6,-2.06 5.78,-3.07 16.05,-13.77 0.97,-37.22 -16.91,-30.94z"/>
  <g style="clip-path:url(#id2)">
   <g id="_1396577329840">
    <ellipse class="fil3" cx="313.35" cy="175.67" rx="49.99" ry="43.3"/>
   </g>
  </g>
  <path class="fil2" d="M304.49 89.6c-21.9,7.7 -11.37,40.81 11.13,34.01 2.34,-0.71 4.6,-2.06 5.78,-3.07 16.05,-13.77 0.97,-37.22 -16.91,-30.94z"/>
  <path class="fil0" d="M347.96 89.61c-21.9,7.7 -11.38,40.81 11.13,34.01 2.34,-0.71 4.6,-2.07 5.77,-3.07 16.06,-13.78 0.98,-37.23 -16.9,-30.94z"/>
  <g style="clip-path:url(#id3)">
   <g id="_1396577327856">
    <ellipse class="fil3" cx="356.81" cy="175.67" rx="49.99" ry="43.3"/>
   </g>
  </g>
  <path class="fil2" d="M347.96 89.61c-21.9,7.7 -11.38,40.81 11.13,34.01 2.34,-0.71 4.6,-2.07 5.77,-3.07 16.06,-13.78 0.98,-37.23 -16.9,-30.94z"/>
  <path class="fil4" d="M1171.91 154.74c-8.45,-4.88 -17.51,-8.03 -27.18,-9.44l0 80.43 -22.82 0 0 -80.43c-9.67,1.41 -18.78,4.56 -27.32,9.44l-7.75 -17.04c6.76,-4.04 14.09,-7.09 21.97,-9.16 7.89,-2.06 16.01,-3.1 24.37,-3.1 8.45,0 16.64,1.04 24.58,3.1 7.93,2.07 15.23,5.12 21.9,9.16l-7.75 17.04zm39.89 54.51c3.95,0 7.44,-0.59 10.49,-1.76 3.06,-1.17 5.9,-3.03 8.53,-5.56l11.69 12.67c-7.14,8.17 -17.56,12.26 -31.27,12.26 -8.55,0 -16.11,-1.67 -22.68,-5 -6.57,-3.34 -11.64,-7.96 -15.21,-13.88 -3.57,-5.91 -5.35,-12.63 -5.35,-20.14 0,-7.42 1.76,-14.11 5.28,-20.07 3.52,-5.96 8.36,-10.61 14.51,-13.94 6.15,-3.34 13.07,-5 20.77,-5 7.23,0 13.81,1.52 19.72,4.57 5.92,3.06 10.64,7.47 14.16,13.24 3.52,5.78 5.28,12.61 5.28,20.5l-56.06 10.84c1.6,3.76 4.11,6.58 7.54,8.45 3.42,1.88 7.62,2.82 12.6,2.82zm-3.24 -43.8c-5.54,0 -10.05,1.78 -13.52,5.35 -3.47,3.57 -5.3,8.5 -5.49,14.79l36.9 -7.19c-1.03,-3.94 -3.15,-7.09 -6.34,-9.43 -3.19,-2.35 -7.04,-3.52 -11.55,-3.52zm91.73 -16.62c7.04,0 13.45,1.62 19.23,4.86 5.77,3.23 10.3,7.79 13.59,13.66 3.29,5.87 4.93,12.7 4.93,20.49 0,7.8 -1.64,14.63 -4.93,20.5 -3.29,5.86 -7.82,10.42 -13.59,13.66 -5.78,3.24 -12.19,4.86 -19.23,4.86 -9.67,0 -17.28,-3.05 -22.82,-9.16l0 35.35 -21.98 0 0 -103.1 21 0 0 8.74c5.44,-6.58 13.38,-9.86 23.8,-9.86zm-3.8 60c5.63,0 10.26,-1.9 13.87,-5.71 3.62,-3.8 5.42,-8.89 5.42,-15.28 0,-6.38 -1.8,-11.48 -5.42,-15.28 -3.61,-3.8 -8.24,-5.71 -13.87,-5.71 -5.64,0 -10.26,1.91 -13.88,5.71 -3.61,3.8 -5.42,8.9 -5.42,15.28 0,6.39 1.81,11.48 5.42,15.28 3.62,3.81 8.24,5.71 13.88,5.71zm85.24 18.03c-7.98,0 -15.14,-1.67 -21.48,-5 -6.34,-3.34 -11.29,-7.96 -14.86,-13.88 -3.57,-5.91 -5.35,-12.63 -5.35,-20.14 0,-7.51 1.78,-14.22 5.35,-20.14 3.57,-5.92 8.52,-10.54 14.86,-13.87 6.34,-3.34 13.5,-5 21.48,-5 7.98,0 15.12,1.66 21.41,5 6.29,3.33 11.22,7.95 14.79,13.87 3.57,5.92 5.35,12.63 5.35,20.14 0,7.51 -1.78,14.23 -5.35,20.14 -3.57,5.92 -8.5,10.54 -14.79,13.88 -6.29,3.33 -13.43,5 -21.41,5zm0 -18.03c5.63,0 10.26,-1.9 13.87,-5.71 3.62,-3.8 5.43,-8.89 5.43,-15.28 0,-6.38 -1.81,-11.48 -5.43,-15.28 -3.61,-3.8 -8.24,-5.71 -13.87,-5.71 -5.64,0 -10.28,1.91 -13.95,5.71 -3.66,3.8 -5.49,8.9 -5.49,15.28 0,6.39 1.83,11.48 5.49,15.28 3.67,3.81 8.31,5.71 13.95,5.71zm111.29 0l0 16.9 -67.61 0 0 -13.24 15.07 -17.75 -10.28 0 0 -14.65 22.68 0 11.13 -13.24 -37.61 0 0 -16.9 65.35 0 0 13.24 -14.36 17.05 10.7 0 0 14.64 -23.1 0 -11.83 13.95 39.86 0zm33.27 18.03c-6.3,0 -12.45,-0.78 -18.46,-2.33 -6.01,-1.55 -10.79,-3.49 -14.36,-5.84l7.32 -15.78c3.38,2.16 7.47,3.92 12.26,5.28 4.78,1.37 9.48,2.05 14.08,2.05 9.3,0 13.94,-2.3 13.94,-6.91 0,-2.15 -1.26,-3.7 -3.8,-4.64 -2.53,-0.94 -6.43,-1.74 -11.69,-2.4 -6.2,-0.94 -11.31,-2.02 -15.35,-3.24 -4.04,-1.22 -7.54,-3.38 -10.5,-6.48 -2.95,-3.09 -4.43,-7.51 -4.43,-13.24 0,-4.79 1.38,-9.03 4.15,-12.74 2.77,-3.71 6.81,-6.6 12.12,-8.67 5.3,-2.06 11.57,-3.09 18.8,-3.09 5.35,0 10.68,0.58 15.99,1.76 5.3,1.17 9.69,2.79 13.17,4.86l-7.33 15.63c-6.67,-3.76 -13.94,-5.63 -21.83,-5.63 -4.7,0 -8.22,0.65 -10.56,1.97 -2.35,1.31 -3.53,3 -3.53,5.07 0,2.35 1.27,3.99 3.81,4.93 2.53,0.94 6.57,1.83 12.11,2.67 6.2,1.04 11.27,2.14 15.21,3.31 3.95,1.18 7.37,3.31 10.28,6.41 2.92,3.1 4.37,7.42 4.37,12.96 0,4.7 -1.41,8.88 -4.22,12.54 -2.82,3.66 -6.93,6.5 -12.33,8.52 -5.4,2.02 -11.81,3.03 -19.22,3.03zm87.06 -78.03c7.04,0 13.45,1.62 19.23,4.86 5.77,3.23 10.3,7.79 13.59,13.66 3.29,5.87 4.93,12.7 4.93,20.49 0,7.8 -1.64,14.63 -4.93,20.5 -3.29,5.86 -7.82,10.42 -13.59,13.66 -5.78,3.24 -12.19,4.86 -19.23,4.86 -9.67,0 -17.28,-3.05 -22.82,-9.16l0 35.35 -21.97 0 0 -103.1 20.99 0 0 8.74c5.44,-6.58 13.38,-9.86 23.8,-9.86zm-3.8 60c5.63,0 10.26,-1.9 13.87,-5.71 3.62,-3.8 5.42,-8.89 5.42,-15.28 0,-6.38 -1.8,-11.48 -5.42,-15.28 -3.61,-3.8 -8.24,-5.71 -13.87,-5.71 -5.64,0 -10.26,1.91 -13.88,5.71 -3.61,3.8 -5.42,8.9 -5.42,15.28 0,6.39 1.81,11.48 5.42,15.28 3.62,3.81 8.24,5.71 13.88,5.71zm126.09 -58.88l0 75.78 -20.99 0 0 -8.73c-5.45,6.57 -13.34,9.86 -23.66,9.86 -7.14,0 -13.6,-1.6 -19.37,-4.79 -5.78,-3.19 -10.31,-7.75 -13.59,-13.66 -3.29,-5.92 -4.93,-12.77 -4.93,-20.57 0,-7.79 1.64,-14.65 4.93,-20.56 3.28,-5.92 7.81,-10.47 13.59,-13.67 5.77,-3.19 12.23,-4.78 19.37,-4.78 9.67,0 17.23,3.05 22.67,9.15l0 -8.03 21.98 0zm-40.85 58.88c5.54,0 10.14,-1.9 13.8,-5.71 3.66,-3.8 5.5,-8.89 5.5,-15.28 0,-6.38 -1.84,-11.48 -5.5,-15.28 -3.66,-3.8 -8.26,-5.71 -13.8,-5.71 -5.64,0 -10.28,1.91 -13.95,5.71 -3.66,3.8 -5.49,8.9 -5.49,15.28 0,6.39 1.83,11.48 5.49,15.28 3.67,3.81 8.31,5.71 13.95,5.71z"/>
  <path class="fil5" d="M712.9 235.25c4.68,0 8.46,3.79 8.46,8.46 0,4.68 -3.78,8.46 -8.46,8.46 -4.67,0 -8.46,-3.78 -8.46,-8.46 0,-4.67 3.79,-8.46 8.46,-8.46z"/>
  <path class="fil6" d="M800.68 235.84c4.67,0 8.46,3.79 8.46,8.46 0,4.67 -3.79,8.46 -8.46,8.46 -4.67,0 -8.46,-3.79 -8.46,-8.46 0,-4.67 3.79,-8.46 8.46,-8.46z"/>
  <path class="fil7" d="M757.85 235.25c4.67,0 8.46,3.79 8.46,8.46 0,4.68 -3.79,8.46 -8.46,8.46 -4.67,0 -8.46,-3.78 -8.46,-8.46 0,-4.67 3.79,-8.46 8.46,-8.46z"/>
  <path class="fil8" d="M734.06 235.19c4.67,0 8.46,3.79 8.46,8.46 0,4.68 -3.79,8.46 -8.46,8.46 -4.68,0 -8.46,-3.78 -8.46,-8.46 0,-4.67 3.78,-8.46 8.46,-8.46z"/>
  <path class="fil9" d="M821.83 235.78c4.68,0 8.47,3.79 8.47,8.46 0,4.67 -3.79,8.46 -8.47,8.46 -4.67,0 -8.46,-3.79 -8.46,-8.46 0,-4.67 3.79,-8.46 8.46,-8.46z"/>
  <path class="fil10" d="M779 235.19c4.68,0 8.46,3.79 8.46,8.46 0,4.68 -3.78,8.46 -8.46,8.46 -4.67,0 -8.46,-3.78 -8.46,-8.46 0,-4.67 3.79,-8.46 8.46,-8.46z"/>
  <path class="fil11" d="M738.02 151.08c6.95,0 13.24,1.57 18.88,4.72 5.63,3.14 10.05,7.58 13.24,13.31 3.19,5.73 4.79,12.25 4.79,19.58 0,7.32 -1.6,13.85 -4.79,19.57 -3.19,5.73 -7.61,10.19 -13.24,13.39 -5.64,3.19 -11.93,4.78 -18.88,4.78 -6.19,0 -11.76,-1.31 -16.69,-3.94 -4.93,-2.63 -8.89,-6.43 -11.9,-11.41l0 14.65 -9.58 0 0 -104.51 10 0 0 44.51c3.1,-4.79 7.07,-8.43 11.91,-10.92 4.83,-2.49 10.25,-3.73 16.26,-3.73zm-0.7 66.48c5.16,0 9.86,-1.2 14.09,-3.59 4.22,-2.4 7.53,-5.8 9.93,-10.21 2.39,-4.42 3.59,-9.44 3.59,-15.07 0,-5.64 -1.2,-10.66 -3.59,-15.07 -2.4,-4.42 -5.71,-7.82 -9.93,-10.22 -4.23,-2.39 -8.93,-3.59 -14.09,-3.59 -5.26,0 -9.98,1.2 -14.16,3.59 -4.17,2.4 -7.46,5.8 -9.85,10.22 -2.4,4.41 -3.6,9.43 -3.6,15.07 0,5.63 1.2,10.65 3.6,15.07 2.39,4.41 5.68,7.81 9.85,10.21 4.18,2.39 8.9,3.59 14.16,3.59zm118.31 -65.92l0 74.09 -9.58 0 0 -13.52c-2.63,4.51 -6.25,8 -10.85,10.49 -4.6,2.49 -9.86,3.73 -15.77,3.73 -9.67,0 -17.3,-2.7 -22.89,-8.09 -5.59,-5.4 -8.38,-13.31 -8.38,-23.74l0 -42.96 10 0 0 41.98c0,7.79 1.93,13.71 5.78,17.74 3.84,4.04 9.34,6.06 16.47,6.06 7.8,0 13.95,-2.37 18.46,-7.11 4.5,-4.75 6.76,-11.34 6.76,-19.79l0 -38.88 10 0zm41.38 74.79c-6.01,0 -11.76,-0.86 -17.25,-2.6 -5.49,-1.74 -9.79,-3.92 -12.89,-6.55l4.51 -7.89c3.1,2.44 6.99,4.44 11.69,5.99 4.69,1.55 9.58,2.32 14.65,2.32 6.76,0 11.76,-1.05 15,-3.17 3.24,-2.11 4.86,-5.09 4.86,-8.94 0,-2.72 -0.89,-4.86 -2.68,-6.41 -1.78,-1.55 -4.04,-2.72 -6.76,-3.52 -2.72,-0.8 -6.34,-1.57 -10.84,-2.33 -6.01,-1.12 -10.85,-2.27 -14.51,-3.45 -3.66,-1.17 -6.79,-3.17 -9.37,-5.98 -2.58,-2.82 -3.87,-6.72 -3.87,-11.69 0,-6.2 2.58,-11.27 7.74,-15.21 5.17,-3.95 12.35,-5.92 21.56,-5.92 4.78,0 9.57,0.63 14.36,1.9 4.79,1.27 8.73,2.94 11.83,5l-4.36 8.03c-6.11,-4.23 -13.38,-6.34 -21.83,-6.34 -6.39,0 -11.2,1.13 -14.44,3.38 -3.24,2.26 -4.86,5.21 -4.86,8.88 0,2.81 0.91,5.07 2.75,6.76 1.83,1.69 4.1,2.93 6.83,3.73 2.72,0.8 6.48,1.62 11.26,2.46 5.92,1.13 10.66,2.26 14.23,3.38 3.57,1.13 6.62,3.06 9.16,5.78 2.53,2.72 3.8,6.48 3.8,11.27 0,6.48 -2.7,11.62 -8.1,15.42 -5.4,3.8 -12.89,5.7 -22.47,5.7zm147.03 -74.79l0 74.09 -9.58 0 0 -14.65c-3,4.98 -6.97,8.78 -11.9,11.41 -4.93,2.63 -10.49,3.94 -16.69,3.94 -6.95,0 -13.24,-1.59 -18.87,-4.78 -5.64,-3.2 -10.05,-7.66 -13.24,-13.39 -3.19,-5.72 -4.79,-12.25 -4.79,-19.57 0,-7.33 1.6,-13.85 4.79,-19.58 3.19,-5.73 7.6,-10.17 13.24,-13.31 5.63,-3.15 11.92,-4.72 18.87,-4.72 6.01,0 11.43,1.24 16.27,3.73 4.84,2.49 8.8,6.13 11.9,10.92l0 -14.09 10 0zm-37.32 65.92c5.16,0 9.83,-1.2 14.01,-3.59 4.18,-2.4 7.47,-5.8 9.86,-10.21 2.4,-4.42 3.59,-9.44 3.59,-15.07 0,-5.64 -1.19,-10.66 -3.59,-15.07 -2.39,-4.42 -5.68,-7.82 -9.86,-10.22 -4.18,-2.39 -8.85,-3.59 -14.01,-3.59 -5.26,0 -9.98,1.2 -14.16,3.59 -4.18,2.4 -7.46,5.8 -9.86,10.22 -2.39,4.41 -3.59,9.43 -3.59,15.07 0,5.63 1.2,10.65 3.59,15.07 2.4,4.41 5.68,7.81 9.86,10.21 4.18,2.39 8.9,3.59 14.16,3.59z"/>
 </g>
</svg>
