<?xml version="1.0" encoding="UTF-8"?>
<!DOCTYPE svg PUBLIC "-//W3C//DTD SVG 1.1//EN" "http://www.w3.org/Graphics/SVG/1.1/DTD/svg11.dtd">
<!-- Creator: CorelDRAW 2017 -->
<svg xmlns="http://www.w3.org/2000/svg" xml:space="preserve" width="2.9632mm" height="2.9632mm" version="1.1" style="shape-rendering:geometricPrecision; text-rendering:geometricPrecision; image-rendering:optimizeQuality; fill-rule:evenodd; clip-rule:evenodd"
viewBox="0 0 296.32 296.32"
 xmlns:xlink="http://www.w3.org/1999/xlink">
 <defs>
  <style type="text/css">
   <![CDATA[
    .fil0 {fill:#FEFEFE}
   ]]>
  </style>
 </defs>
 <g id="Capa_x0020_1">
  <metadata id="CorelCorpID_0Corel-Layer"/>
  <path class="fil0" d="M144.86 100.37c-28.02,4.49 -79.75,-19.86 -102.81,-39.87l-24.95 -23.68c-6.55,14.15 -10.1,30.17 -5.01,48.11 3.95,13.93 15.59,28.91 23.55,33.51 -12.11,1.52 -18.83,-5.35 -26.45,-5.66 -1.15,44.07 38.53,55.8 45.67,60.96 -5.9,3.31 -14.97,1.89 -23.17,1.89 5.41,26.19 31.42,39.18 54.38,42.52 -5.18,9.73 -26.08,17.4 -36.21,20.72 -18.54,6.08 -29.21,5.47 -49.87,6.04 17.08,17.72 67.27,27 92.44,26.98 66.71,-0.04 120.09,-33.3 151.49,-89.29 17.97,-32.06 21.27,-54.8 23.48,-96.99 7.31,-4.75 24.89,-20.73 28.93,-30.54 -11.35,1.96 -18.31,7.33 -31.6,7.77 8.73,-9.3 20.01,-15.62 23.84,-32.13 -7,1.6 -14.45,6.43 -22.46,9.16 -14.21,4.83 -13.18,5.79 -22.42,-1.96 -11.46,-9.61 -29.96,-15.95 -49.35,-12.55 -35.02,6.13 -53.91,36.98 -49.48,75.01z"/>
 </g>
</svg>
