<?xml version="1.0" encoding="UTF-8"?>
<!DOCTYPE svg PUBLIC "-//W3C//DTD SVG 1.1//EN" "http://www.w3.org/Graphics/SVG/1.1/DTD/svg11.dtd">
<!-- Creator: CorelDRAW 2017 -->
<svg xmlns="http://www.w3.org/2000/svg" xml:space="preserve" width="2.9632mm" height="2.9632mm" version="1.1" style="shape-rendering:geometricPrecision; text-rendering:geometricPrecision; image-rendering:optimizeQuality; fill-rule:evenodd; clip-rule:evenodd"
viewBox="0 0 296.32 296.32"
 xmlns:xlink="http://www.w3.org/1999/xlink">
 <defs>
  <style type="text/css">
   <![CDATA[
    .fil4 {fill:#FEFEFE}
    .fil0 {fill:#2C2B30}
    .fil5 {fill:#4EF298}
    .fil3 {fill:#EE4552}
    .fil1 {fill:#FD021C}
    .fil6 {fill:#373435;fill-rule:nonzero}
    .fil2 {fill:#2C2B30;fill-rule:nonzero}
   ]]>
  </style>
   <clipPath id="id0">
    <path d="M144.48 226.41c-21.42,13.04 -2.88,45.68 19.38,33.45 2.31,-1.27 4.4,-3.21 5.42,-4.54 13.88,-18.15 -7.31,-39.56 -24.8,-28.91z"/>
   </clipPath>
   <clipPath id="id1">
    <path d="M108.89 173.7c-15.42,-17.86 -25.77,-25.44 -38.11,-56.21 -29.37,-73.24 2.51,-117.57 44.98,-39.98 15.27,27.89 16.28,43.19 20.44,75.81l11.32 -2.14c-0.49,-26.36 6.1,-57.82 17.1,-73.58 9.05,-12.95 45.96,-37.56 71.84,-28.5 16.46,5.75 13.04,20 1.45,28.89 -29.45,22.61 -25.05,25.12 -39.98,54.83 -6.52,12.98 -12.57,16.97 -19.74,28.21 5.59,8.59 21.73,19.39 17.64,44.92 -24.96,-5.81 -45.07,-9.58 -72.49,4.28 -4.55,2.3 -6.49,4.08 -10.19,6.08 -19.8,10.69 -10.32,-33.88 -4.26,-42.61z"/>
   </clipPath>
 </defs>
 <g id="Capa_x0020_1">
  <metadata id="CorelCorpID_0Corel-Layer"/>
  <rect class="fil0" x="20.25" y="35.1" width="255.82" height="255.82" rx="104" ry="127.91"/>
  <rect class="fil1" x="25.98" y="41.56" width="243.34" height="236.57" rx="98.93" ry="118.29"/>
  <g>
   <path class="fil2" d="M161.7 255.93l4.32 7.86 0 0 -2.45 1.2 -2.47 0.92 -2.46 0.65 -2.44 0.37 -2.41 0.1 -2.34 -0.15 -2.27 -0.39 -2.19 -0.62 -2.08 -0.83 -1.98 -1.02 -1.83 -1.19 -1.71 -1.34 -1.59 -1.48 -1.45 -1.62 -1.3 -1.73 -1.15 -1.82 -0.99 -1.91 -0.83 -1.99 -0.67 -2.06 -0.48 -2.11 -0.31 -2.16 -0.1 -2.2 0.1 -2.21 0.33 -2.21 0.55 -2.2 0.79 -2.16 1.03 -2.1 1.28 -2.03 1.52 -1.93 1.77 -1.8 2.02 -1.67 2.24 -1.52 4.66 7.66 -1.54 1.04 -1.32 1.09 -1.11 1.14 -0.94 1.17 -0.76 1.21 -0.61 1.26 -0.47 1.28 -0.33 1.3 -0.19 1.33 -0.06 1.35 0.06 1.36 0.19 1.36 0.32 1.35 0.43 1.34 0.55 1.31 0.65 1.25 0.75 1.2 0.84 1.13 0.93 1.02 1.01 0.96 1.09 0.84 1.15 0.75 1.18 0.62 1.24 0.49 1.29 0.36 1.33 0.23 1.4 0.09 1.43 -0.06 1.5 -0.23 1.56 -0.41 1.63 -0.6 1.69 -0.84 0 0zm0 0c2.17,-1.19 4.9,-0.4 6.09,1.77 1.19,2.17 0.4,4.9 -1.77,6.09l-4.32 -7.86zm4.02 -3.33l7.12 5.44 -0.01 0.01 -0.1 0.13 -0.16 0.21 -0.24 0.29 -0.13 0.14 -0.13 0.14 -0.13 0.15 -0.19 0.21 -0.25 0.26 -0.1 0.09 -0.19 0.21 -0.21 0.2 -0.21 0.2 -0.22 0.19 -0.16 0.15 -0.26 0.24 -0.18 0.15 -0.17 0.14 -0.23 0.2 -0.24 0.2 -0.29 0.23 -0.19 0.14 -0.18 0.14 -0.3 0.23 -0.26 0.18 -0.24 0.17 -0.25 0.17 -0.28 0.18 -0.21 0.13 -0.27 0.18 -0.28 0.16 -0.25 0.15 -0.31 0.18 -4.32 -7.86 0.13 -0.06 0.17 -0.11 0.14 -0.08 0.15 -0.1 0.21 -0.13 0.14 -0.1 0.17 -0.11 0.16 -0.11 0.14 -0.1 0.1 -0.07 0.2 -0.16 0.19 -0.14 0.09 -0.07 0.12 -0.1 0.15 -0.12 0.17 -0.16 0.18 -0.15 0.08 -0.06 0.16 -0.15 0.12 -0.11 0.09 -0.1 0.11 -0.1 0.09 -0.09 0.2 -0.21 0.03 -0.02 0.07 -0.09 0.13 -0.13 0.11 -0.14 0.11 -0.12 -0.02 0.03 0.04 -0.05 0.1 -0.13 -0.01 0.01zm0.01 -0.01c1.5,-1.96 4.32,-2.32 6.28,-0.82 1.96,1.5 2.32,4.32 0.82,6.28l-7.1 -5.46zm-18.92 -22.35l-4.66 -7.66 0 0 2 -1.1 2.04 -0.89 2.07 -0.68 2.09 -0.47 2.07 -0.27 2.06 -0.08 2.03 0.1 2.01 0.29 1.93 0.45 1.88 0.61 1.82 0.76 1.73 0.9 1.66 1.03 1.57 1.15 1.48 1.29 1.36 1.38 1.24 1.47 1.16 1.59 1.01 1.7 0.87 1.75 0.74 1.85 0.57 1.93 0.41 1.97 0.24 2.03 0.05 2.08 -0.15 2.09 -0.34 2.12 -0.55 2.14 -0.77 2.11 -0.98 2.09 -1.2 2.06 -1.41 2.01 -7.12 -5.44 0.99 -1.41 0.8 -1.38 0.64 -1.37 0.49 -1.35 0.35 -1.3 0.2 -1.3 0.09 -1.29 -0.03 -1.24 -0.14 -1.23 -0.25 -1.21 -0.35 -1.17 -0.46 -1.13 -0.55 -1.13 -0.63 -1.04 -0.72 -0.99 -0.82 -0.97 -0.88 -0.9 -0.94 -0.81 -0.99 -0.73 -1.06 -0.67 -1.11 -0.56 -1.12 -0.48 -1.18 -0.37 -1.19 -0.29 -1.21 -0.17 -1.23 -0.06 -1.24 0.04 -1.25 0.17 -1.27 0.29 -1.27 0.42 -1.28 0.55 -1.3 0.72 0 0zm0 0c-2.11,1.28 -4.88,0.61 -6.16,-1.5 -1.28,-2.11 -0.61,-4.88 1.5,-6.16l4.66 7.66z"/>
  </g>
  <path id="1" class="fil1" d="M144.48 226.41c-21.42,13.04 -2.88,45.68 19.38,33.45 2.31,-1.27 4.4,-3.21 5.42,-4.54 13.88,-18.15 -7.31,-39.56 -24.8,-28.91z"/>
  <g style="clip-path:url(#id0)">
   <g>
    <ellipse class="fil3" transform="matrix(0.108173 -0.0229244 0.0229246 0.108172 173.116 315.394)" rx="488.48" ry="423.12"/>
   </g>
  </g>
  <g>
   <path class="fil2" d="M66.62 119.16l8.32 -3.34 0 0 1.13 2.77 1.11 2.63 1.1 2.5 1.1 2.38 1.09 2.27 1.08 2.17 1.08 2.06 1.06 1.97 1.07 1.88 1.06 1.8 1.06 1.72 1.07 1.67 1.07 1.59 1.06 1.54 1.08 1.5 1.09 1.46 1.1 1.42 1.11 1.4 1.12 1.37 1.14 1.36 1.17 1.36 1.17 1.35 1.21 1.35 1.23 1.37 1.25 1.39 1.27 1.41 1.31 1.43 1.33 1.48 1.35 1.51 1.4 1.55 1.42 1.62 1.45 1.67 -6.78 5.86 -1.41 -1.63 -1.38 -1.56 -1.36 -1.53 -1.35 -1.49 -1.31 -1.46 -1.31 -1.43 -1.29 -1.43 -1.25 -1.39 -1.25 -1.39 -1.25 -1.41 -1.23 -1.41 -1.21 -1.42 -1.22 -1.44 -1.2 -1.47 -1.19 -1.5 -1.18 -1.52 -1.17 -1.58 -1.18 -1.62 -1.16 -1.68 -1.15 -1.73 -1.15 -1.79 -1.16 -1.88 -1.14 -1.94 -1.15 -2.02 -1.14 -2.11 -1.14 -2.2 -1.14 -2.29 -1.15 -2.39 -1.16 -2.52 -1.16 -2.62 -1.17 -2.75 -1.17 -2.87 0 0zm0 0c-0.92,-2.29 0.2,-4.91 2.49,-5.83 2.29,-0.92 4.91,0.2 5.83,2.49l-8.32 3.34zm53.07 -43.8l-7.86 4.3 0 0 -3.87 -6.78 -3.78 -6.06 -3.68 -5.37 -3.56 -4.7 -3.44 -4.03 -3.28 -3.37 -3.1 -2.75 -2.91 -2.14 -2.66 -1.55 -2.4 -1.02 -2.11 -0.53 -1.8 -0.13 -1.56 0.21 -1.4 0.49 -1.33 0.83 -1.31 1.2 -1.26 1.64 -1.19 2.1 -1.05 2.56 -0.88 3 -0.69 3.44 -0.47 3.82 -0.21 4.19 0.04 4.56 0.3 4.88 0.6 5.18 0.89 5.48 1.19 5.75 1.5 5.99 1.84 6.22 2.17 6.43 2.52 6.62 -8.32 3.34 -2.64 -6.94 -2.27 -6.75 -1.94 -6.56 -1.6 -6.35 -1.27 -6.11 -0.95 -5.88 -0.64 -5.62 -0.34 -5.36 -0.04 -5.06 0.25 -4.77 0.55 -4.48 0.83 -4.14 1.12 -3.84 1.45 -3.5 1.77 -3.14 2.12 -2.74 2.51 -2.3 2.87 -1.77 3.2 -1.13 3.4 -0.45 3.5 0.25 3.53 0.89 3.56 1.5 3.56 2.07 3.61 2.66 3.66 3.23 3.72 3.83 3.78 4.45 3.86 5.06 3.9 5.71 3.98 6.38 4.03 7.06 0 0zm0 0c1.18,2.17 0.39,4.9 -1.78,6.08 -2.17,1.18 -4.9,0.39 -6.08,-1.78l7.86 -4.3zm15.68 73.56l1.66 8.8 -5.27 -3.83 -0.38 -3.02 -0.38 -2.91 -0.35 -2.82 -0.34 -2.73 -0.34 -2.66 -0.33 -2.57 -0.34 -2.48 -0.34 -2.43 -0.34 -2.37 -0.36 -2.3 -0.36 -2.25 -0.38 -2.21 -0.4 -2.17 -0.42 -2.12 -0.45 -2.12 -0.46 -2.07 -0.5 -2.05 -0.54 -2.05 -0.57 -2.04 -0.62 -2.04 -0.65 -2.06 -0.71 -2.06 -0.75 -2.08 -0.81 -2.11 -0.86 -2.13 -0.93 -2.18 -0.99 -2.22 -1.06 -2.28 -1.13 -2.33 -1.2 -2.39 -1.28 -2.45 -1.36 -2.53 7.86 -4.3 1.42 2.63 1.34 2.57 1.26 2.51 1.19 2.45 1.12 2.4 1.05 2.36 0.99 2.32 0.92 2.29 0.87 2.27 0.81 2.24 0.75 2.22 0.71 2.2 0.66 2.2 0.61 2.2 0.58 2.19 0.54 2.21 0.5 2.21 0.47 2.22 0.44 2.24 0.42 2.27 0.4 2.31 0.38 2.33 0.36 2.38 0.36 2.43 0.34 2.47 0.34 2.54 0.33 2.59 0.34 2.66 0.36 2.75 0.35 2.82 0.36 2.91 0.38 3 -5.27 -3.83zm5.27 3.83c0.31,2.45 -1.42,4.7 -3.87,5.01 -2.45,0.31 -4.7,-1.42 -5.01,-3.87l8.88 -1.14zm7.71 2.83l-11.32 2.14 -1.66 -8.8 11.32 -2.14 5.31 4.32 -3.65 4.48zm-1.66 -8.8c2.43,-0.45 4.78,1.14 5.23,3.57 0.45,2.43 -1.14,4.78 -3.57,5.23l-1.66 -8.8zm14.26 -71.75l7.34 5.14 0 -0.01 -0.92 1.38 -0.9 1.47 -0.9 1.57 -0.86 1.66 -0.86 1.74 -0.83 1.82 -0.82 1.89 -0.78 1.97 -0.77 2.03 -0.73 2.08 -0.7 2.15 -0.67 2.21 -0.65 2.26 -0.63 2.3 -0.59 2.34 -0.55 2.37 -0.52 2.4 -0.49 2.45 -0.46 2.46 -0.43 2.48 -0.38 2.5 -0.36 2.51 -0.31 2.51 -0.28 2.53 -0.25 2.54 -0.21 2.51 -0.17 2.51 -0.13 2.5 -0.09 2.48 -0.06 2.47 -0.02 2.43 0.03 2.42 -8.96 0.16 -0.03 -2.56 0.02 -2.59 0.06 -2.59 0.09 -2.62 0.15 -2.64 0.17 -2.65 0.23 -2.65 0.25 -2.64 0.3 -2.65 0.33 -2.65 0.38 -2.65 0.4 -2.62 0.45 -2.62 0.48 -2.58 0.51 -2.57 0.56 -2.56 0.59 -2.51 0.63 -2.48 0.65 -2.44 0.69 -2.4 0.73 -2.37 0.76 -2.31 0.79 -2.28 0.83 -2.21 0.86 -2.15 0.9 -2.11 0.93 -2.02 0.96 -1.96 1 -1.9 1.04 -1.83 1.08 -1.75 1.12 -1.66 0 -0.01zm0 0.01c1.41,-2.02 4.21,-2.52 6.23,-1.11 2.02,1.41 2.52,4.21 1.11,6.23l-7.34 -5.12zm76.99 -30.17l-2.96 8.46 0 0 -2.13 -0.65 -2.18 -0.5 -2.26 -0.33 -2.31 -0.18 -2.37 -0.04 -2.43 0.1 -2.47 0.23 -2.48 0.37 -2.53 0.49 -2.54 0.61 -2.55 0.71 -2.54 0.82 -2.52 0.92 -2.52 1 -2.5 1.09 -2.46 1.16 -2.41 1.21 -2.36 1.28 -2.3 1.32 -2.24 1.36 -2.15 1.38 -2.09 1.43 -1.99 1.41 -1.88 1.43 -1.78 1.42 -1.66 1.39 -1.54 1.38 -1.4 1.34 -1.26 1.29 -1.12 1.22 -0.94 1.13 -0.78 1.05 -7.34 -5.14 1.08 -1.45 1.22 -1.47 1.36 -1.5 1.48 -1.51 1.62 -1.54 1.74 -1.56 1.86 -1.57 1.96 -1.56 2.08 -1.57 2.17 -1.55 2.25 -1.53 2.35 -1.52 2.44 -1.48 2.5 -1.44 2.58 -1.38 2.63 -1.33 2.68 -1.26 2.74 -1.19 2.78 -1.12 2.82 -1.02 2.86 -0.92 2.87 -0.81 2.9 -0.69 2.91 -0.57 2.94 -0.43 2.93 -0.27 2.91 -0.12 2.91 0.04 2.91 0.24 2.88 0.43 2.84 0.64 2.79 0.85 0 0zm0 0c2.33,0.81 3.56,3.38 2.75,5.71 -0.81,2.33 -3.38,3.56 -5.71,2.75l2.96 -8.46zm2.7 36.67l-5.46 -7.1 0 -0.01 0.92 -0.73 0.88 -0.76 0.83 -0.78 0.77 -0.79 0.72 -0.81 0.66 -0.79 0.6 -0.82 0.55 -0.82 0.47 -0.79 0.42 -0.8 0.36 -0.78 0.29 -0.78 0.24 -0.74 0.17 -0.72 0.11 -0.69 0.05 -0.66 0.01 -0.65 -0.04 -0.59 -0.11 -0.6 -0.14 -0.57 -0.2 -0.53 -0.27 -0.56 -0.33 -0.55 -0.39 -0.54 -0.48 -0.55 -0.56 -0.56 -0.67 -0.55 -0.77 -0.54 -0.91 -0.55 -0.99 -0.53 -1.12 -0.49 -1.27 -0.48 2.96 -8.46 1.71 0.64 1.62 0.73 1.51 0.79 1.39 0.85 1.31 0.92 1.21 1.01 1.1 1.06 0.98 1.13 0.87 1.2 0.73 1.25 0.61 1.28 0.5 1.35 0.36 1.37 0.23 1.36 0.12 1.39 -0.01 1.37 -0.11 1.36 -0.23 1.35 -0.31 1.34 -0.42 1.32 -0.49 1.28 -0.58 1.26 -0.64 1.24 -0.73 1.21 -0.79 1.18 -0.86 1.16 -0.92 1.13 -0.98 1.09 -1.05 1.07 -1.09 1.02 -1.14 1 -1.2 0.97 0 -0.01zm0 0.01c-1.96,1.5 -4.79,1.13 -6.29,-0.83 -1.5,-1.96 -1.13,-4.79 0.83,-6.29l5.46 7.12zm-38.71 53.28l-8 -4.02 0 0 1.32 -2.68 1.23 -2.51 1.13 -2.39 1.06 -2.26 0.97 -2.12 0.91 -2.02 0.87 -1.93 0.82 -1.84 0.81 -1.77 0.78 -1.69 0.76 -1.64 0.78 -1.58 0.77 -1.53 0.81 -1.52 0.84 -1.49 0.88 -1.46 0.92 -1.44 1 -1.46 1.06 -1.42 1.12 -1.45 1.22 -1.44 1.3 -1.46 1.41 -1.49 1.51 -1.51 1.61 -1.54 1.74 -1.6 1.89 -1.66 2.02 -1.72 2.18 -1.8 2.32 -1.88 2.52 -1.99 2.69 -2.08 5.46 7.1 -2.63 2.04 -2.44 1.93 -2.26 1.82 -2.08 1.72 -1.92 1.64 -1.75 1.54 -1.6 1.48 -1.49 1.42 -1.35 1.35 -1.23 1.29 -1.12 1.26 -1.04 1.24 -0.96 1.21 -0.88 1.2 -0.82 1.2 -0.78 1.22 -0.76 1.26 -0.72 1.27 -0.71 1.34 -0.71 1.41 -0.72 1.46 -0.72 1.54 -0.76 1.63 -0.77 1.73 -0.82 1.82 -0.87 1.95 -0.93 2.06 -1.01 2.18 -1.08 2.3 -1.15 2.45 -1.27 2.59 -1.36 2.74 0 0zm0 0c-1.11,2.2 -3.81,3.1 -6.01,1.99 -2.2,-1.11 -3.1,-3.81 -1.99,-6.01l8 4.02zm-19.98 23.76l-7.52 4.88 -0.02 -4.85 0.7 -1.08 0.7 -1.05 0.69 -1 0.67 -0.96 0.69 -0.96 0.67 -0.88 0.65 -0.88 0.67 -0.86 0.64 -0.81 0.63 -0.81 0.65 -0.8 0.62 -0.76 0.6 -0.76 0.62 -0.76 0.6 -0.73 0.59 -0.74 0.6 -0.74 0.58 -0.74 0.58 -0.75 0.57 -0.75 0.56 -0.77 0.56 -0.77 0.56 -0.8 0.57 -0.84 0.57 -0.85 0.56 -0.87 0.56 -0.91 0.57 -0.96 0.57 -0.98 0.56 -1.03 0.58 -1.09 0.58 -1.12 8 4.02 -0.64 1.26 -0.64 1.19 -0.64 1.17 -0.65 1.12 -0.63 1.06 -0.64 1.03 -0.64 1.01 -0.63 0.95 -0.63 0.92 -0.62 0.9 -0.64 0.89 -0.64 0.85 -0.63 0.83 -0.62 0.79 -0.62 0.8 -0.62 0.78 -0.61 0.76 -0.62 0.77 -0.6 0.74 -0.62 0.76 -0.62 0.76 -0.59 0.74 -0.61 0.77 -0.62 0.79 -0.59 0.76 -0.61 0.82 -0.63 0.84 -0.59 0.82 -0.63 0.9 -0.63 0.9 -0.62 0.95 -0.64 0.98 -0.02 -4.85zm0.02 4.85c-1.33,2.08 -4.11,2.7 -6.19,1.37 -2.08,-1.33 -2.7,-4.11 -1.37,-6.19l7.56 4.82zm12.84 46.87l2.04 -8.72 -5.44 3.65 0.3 -2.16 0.19 -2.06 0.09 -1.98 0.01 -1.9 -0.09 -1.82 -0.16 -1.74 -0.24 -1.67 -0.3 -1.6 -0.37 -1.53 -0.43 -1.48 -0.49 -1.42 -0.54 -1.38 -0.58 -1.32 -0.63 -1.29 -0.66 -1.23 -0.7 -1.2 -0.73 -1.17 -0.76 -1.12 -0.78 -1.1 -0.79 -1.06 -0.82 -1.04 -0.82 -1.03 -0.82 -0.98 -0.81 -0.96 -0.82 -0.95 -0.83 -0.96 -0.78 -0.93 -0.78 -0.92 -0.76 -0.93 -0.73 -0.93 -0.7 -0.95 -0.65 -0.96 7.52 -4.88 0.45 0.66 0.52 0.71 0.59 0.75 0.66 0.81 0.72 0.86 0.76 0.89 0.79 0.92 0.84 0.97 0.89 1.04 0.88 1.08 0.9 1.11 0.92 1.18 0.91 1.22 0.92 1.28 0.9 1.36 0.87 1.39 0.86 1.46 0.82 1.53 0.77 1.59 0.74 1.66 0.68 1.74 0.61 1.8 0.55 1.88 0.47 1.95 0.38 2.02 0.3 2.09 0.2 2.16 0.11 2.24 -0.01 2.32 -0.11 2.38 -0.23 2.48 -0.36 2.54 -5.44 3.65zm5.44 -3.65c-0.39,2.44 -2.69,4.1 -5.13,3.71 -2.44,-0.39 -4.1,-2.69 -3.71,-5.13l8.84 1.42zm-74.89 7.57l-4.04 -8 0 0 2.65 -1.3 2.62 -1.2 2.59 -1.1 2.54 -0.99 2.52 -0.92 2.5 -0.81 2.47 -0.73 2.44 -0.63 2.43 -0.56 2.4 -0.47 2.36 -0.4 2.37 -0.32 2.35 -0.24 2.31 -0.17 2.31 -0.12 2.31 -0.04 2.27 0.02 2.28 0.07 2.27 0.13 2.24 0.19 2.26 0.22 2.25 0.28 2.24 0.31 2.25 0.35 2.25 0.38 2.27 0.42 2.26 0.45 2.26 0.46 2.3 0.49 2.3 0.52 2.31 0.52 2.35 0.55 -2.04 8.72 -2.31 -0.53 -2.29 -0.52 -2.24 -0.5 -2.22 -0.47 -2.2 -0.46 -2.18 -0.43 -2.13 -0.4 -2.13 -0.36 -2.11 -0.33 -2.1 -0.29 -2.07 -0.26 -2.08 -0.2 -2.06 -0.17 -2.05 -0.11 -2.06 -0.07 -2.05 -0.02 -2.05 0.04 -2.05 0.1 -2.09 0.15 -2.07 0.22 -2.07 0.28 -2.12 0.36 -2.14 0.41 -2.15 0.5 -2.18 0.57 -2.21 0.65 -2.24 0.73 -2.28 0.82 -2.32 0.91 -2.35 1 -2.4 1.1 -2.45 1.2 0 0zm0 0c-2.2,1.11 -4.91,0.22 -6.02,-1.98 -1.11,-2.2 -0.22,-4.91 1.98,-6.02l4.04 8zm-10.08 6.02l-4.26 -7.88 0 0 0.3 -0.17 0.31 -0.17 0.28 -0.16 0.3 -0.17 0.24 -0.14 0.27 -0.17 0.32 -0.19 0.26 -0.17 0.29 -0.18 0.26 -0.16 0.2 -0.13 0.28 -0.19 0.33 -0.21 0.28 -0.18 0.26 -0.17 0.29 -0.19 0.28 -0.18 0.32 -0.21 0.32 -0.2 0.31 -0.19 0.34 -0.21 0.26 -0.16 0.37 -0.24 0.38 -0.22 0.34 -0.2 0.4 -0.23 0.39 -0.23 0.4 -0.21 0.42 -0.23 0.4 -0.21 0.42 -0.23 0.48 -0.24 4.04 8 -0.36 0.18 -0.38 0.21 -0.38 0.19 -0.34 0.19 -0.34 0.19 -0.31 0.17 -0.3 0.17 -0.32 0.2 -0.28 0.16 -0.25 0.16 -0.36 0.22 -0.28 0.17 -0.29 0.19 -0.26 0.16 -0.26 0.17 -0.28 0.18 -0.29 0.19 -0.3 0.19 -0.28 0.18 -0.23 0.15 -0.28 0.19 -0.36 0.23 -0.32 0.2 -0.29 0.18 -0.32 0.19 -0.28 0.17 -0.33 0.21 -0.38 0.22 -0.32 0.19 -0.38 0.22 -0.35 0.19 -0.38 0.21 0 0zm0 0c-2.17,1.17 -4.9,0.36 -6.07,-1.81 -1.17,-2.17 -0.36,-4.9 1.81,-6.07l4.26 7.88zm-9.78 -43.62l6.78 -5.86 0.29 5.48 -0.38 0.61 -0.45 0.85 -0.51 1.11 -0.54 1.31 -0.55 1.44 -0.54 1.61 -0.55 1.73 -0.52 1.81 -0.49 1.9 -0.47 1.96 -0.42 2.01 -0.39 2.04 -0.33 2.01 -0.27 2.02 -0.22 1.98 -0.15 1.91 -0.07 1.84 0 1.76 0.07 1.62 0.15 1.45 0.22 1.28 0.28 1.07 0.31 0.83 0.3 0.56 0.23 0.32 0.13 0.11 0.07 0.04 0.11 0.04 0.38 -0.01 0.69 -0.11 1.03 -0.35 1.33 -0.63 4.26 7.88 -2.21 1.05 -2.19 0.73 -2.19 0.37 -2.22 -0.05 -2.17 -0.54 -1.93 -1 -1.61 -1.39 -1.25 -1.6 -0.94 -1.74 -0.67 -1.81 -0.5 -1.87 -0.34 -1.96 -0.21 -2.03 -0.09 -2.08 0 -2.12 0.09 -2.18 0.17 -2.23 0.24 -2.24 0.31 -2.24 0.37 -2.27 0.43 -2.22 0.46 -2.21 0.51 -2.16 0.55 -2.1 0.58 -2.03 0.61 -1.93 0.62 -1.83 0.65 -1.74 0.66 -1.59 0.69 -1.49 0.73 -1.37 0.78 -1.23 0.29 5.48zm-0.29 -5.48c1.4,-2.03 4.2,-2.53 6.23,-1.13 2.03,1.4 2.53,4.2 1.13,6.23l-7.36 -5.1z"/>
  </g>
  <path id="1" class="fil4" d="M108.89 173.7c-15.42,-17.86 -25.77,-25.44 -38.11,-56.21 -29.37,-73.24 2.51,-117.57 44.98,-39.98 15.27,27.89 16.28,43.19 20.44,75.81l11.32 -2.14c-0.49,-26.36 6.1,-57.82 17.1,-73.58 9.05,-12.95 45.96,-37.56 71.84,-28.5 16.46,5.75 13.04,20 1.45,28.89 -29.45,22.61 -25.05,25.12 -39.98,54.83 -6.52,12.98 -12.57,16.97 -19.74,28.21 5.59,8.59 21.73,19.39 17.64,44.92 -24.96,-5.81 -45.07,-9.58 -72.49,4.28 -4.55,2.3 -6.49,4.08 -10.19,6.08 -19.8,10.69 -10.32,-33.88 -4.26,-42.61z"/>
  <g style="clip-path:url(#id1)">
   <g>
    <circle class="fil5" transform="matrix(0.108173 -0.0229244 0.0229246 0.108172 23.2156 209.924)" r="578.6"/>
   </g>
  </g>
  <g>
   <path class="fil6" d="M141.33 225.48l-4.26 -5.58 0 0 0.33 -0.24 0.33 -0.26 0.38 -0.26 0.33 -0.23 0.34 -0.22 0.29 -0.19 0.33 -0.21 0.33 -0.2 0.31 -0.18 0.34 -0.19 0.3 -0.16 0.32 -0.17 0.33 -0.16 0.33 -0.16 0.27 -0.12 0.29 -0.13 0.33 -0.14 0.33 -0.13 0.31 -0.12 0.31 -0.12 0.28 -0.1 0.27 -0.1 0.37 -0.13 0.31 -0.09 0.29 -0.1 0.3 -0.1 0.34 -0.11 0.32 -0.09 0.28 -0.09 0.35 -0.11 0.31 -0.1 0.34 -0.11 2.1 6.7 -0.34 0.11 -0.35 0.1 -0.29 0.09 -0.34 0.11 -0.3 0.09 -0.26 0.09 -0.28 0.08 -0.29 0.1 -0.27 0.09 -0.19 0.07 -0.27 0.1 -0.28 0.1 -0.23 0.08 -0.21 0.08 -0.21 0.09 -0.19 0.08 -0.23 0.11 -0.27 0.12 -0.19 0.08 -0.19 0.1 -0.22 0.11 -0.22 0.12 -0.2 0.11 -0.23 0.14 -0.21 0.12 -0.23 0.15 -0.27 0.17 -0.24 0.16 -0.25 0.17 -0.22 0.16 -0.27 0.2 -0.29 0.22 0 0zm0 0c-1.54,1.17 -3.75,0.88 -4.92,-0.66 -1.17,-1.54 -0.88,-3.75 0.66,-4.92l4.26 5.58zm-8.19 22.66l-6.66 2.24 0 0 -0.31 -1.03 -0.26 -1.05 -0.21 -1.05 -0.15 -1.05 -0.11 -1.05 -0.06 -1.06 -0.01 -1.07 0.04 -1.07 0.08 -1.05 0.11 -1.07 0.18 -1.07 0.2 -1.04 0.24 -1.04 0.28 -1.04 0.32 -1.01 0.35 -1.02 0.39 -1 0.42 -0.99 0.45 -0.97 0.49 -0.97 0.53 -0.96 0.54 -0.9 0.58 -0.91 0.62 -0.88 0.63 -0.87 0.68 -0.83 0.68 -0.81 0.74 -0.79 0.74 -0.74 0.77 -0.73 0.82 -0.71 0.82 -0.65 4.26 5.58 -0.62 0.49 -0.58 0.49 -0.57 0.55 -0.58 0.58 -0.54 0.59 -0.54 0.63 -0.52 0.65 -0.49 0.65 -0.48 0.7 -0.44 0.69 -0.44 0.74 -0.41 0.72 -0.37 0.75 -0.37 0.77 -0.32 0.77 -0.31 0.78 -0.27 0.78 -0.24 0.79 -0.22 0.8 -0.18 0.78 -0.16 0.82 -0.12 0.77 -0.09 0.77 -0.06 0.79 -0.02 0.77 0.01 0.75 0.04 0.76 0.07 0.73 0.11 0.73 0.13 0.71 0.18 0.69 0.21 0.67 0 0zm0 0c0.61,1.83 -0.38,3.84 -2.21,4.45 -1.83,0.61 -3.84,-0.38 -4.45,-2.21l6.66 -2.24zm3.69 7.94l-5.54 4.32 0 0 -0.24 -0.31 -0.21 -0.3 -0.22 -0.29 -0.24 -0.36 -0.15 -0.23 -0.2 -0.29 -0.22 -0.37 -0.18 -0.31 -0.17 -0.3 -0.17 -0.31 -0.14 -0.26 -0.18 -0.33 -0.16 -0.34 -0.13 -0.27 -0.15 -0.32 -0.15 -0.31 -0.13 -0.3 -0.15 -0.35 -0.11 -0.28 -0.12 -0.3 -0.14 -0.36 -0.11 -0.29 -0.12 -0.3 -0.11 -0.32 -0.13 -0.35 -0.11 -0.32 -0.1 -0.29 -0.12 -0.34 -0.11 -0.32 -0.11 -0.34 -0.12 -0.34 -0.11 -0.32 6.66 -2.24 0.11 0.34 0.1 0.32 0.11 0.3 0.11 0.32 0.1 0.3 0.12 0.33 0.09 0.28 0.09 0.25 0.11 0.28 0.1 0.28 0.11 0.29 0.08 0.22 0.12 0.26 0.11 0.28 0.09 0.21 0.11 0.24 0.09 0.23 0.11 0.22 0.13 0.27 0.1 0.2 0.1 0.19 0.14 0.26 0.11 0.21 0.13 0.22 0.12 0.21 0.1 0.15 0.14 0.21 0.19 0.29 0.1 0.16 0.16 0.21 0.15 0.22 0.16 0.19 0 0zm0 0c1.19,1.52 0.91,3.74 -0.61,4.93 -1.52,1.19 -3.74,0.91 -4.93,-0.61l5.54 -4.32zm36.31 -1.11l5.94 3.72 0 0 -0.99 1.47 -1.05 1.39 -1.15 1.33 -1.22 1.24 -1.27 1.14 -1.33 1.06 -1.39 0.99 -1.44 0.89 -1.49 0.8 -1.52 0.72 -1.56 0.62 -1.61 0.54 -1.62 0.43 -1.63 0.35 -1.69 0.25 -1.68 0.15 -1.68 0.06 -1.7 -0.04 -1.72 -0.14 -1.69 -0.25 -1.68 -0.35 -1.69 -0.45 -1.66 -0.56 -1.63 -0.67 -1.62 -0.78 -1.58 -0.88 -1.54 -0.99 -1.5 -1.11 -1.44 -1.21 -1.4 -1.31 -1.34 -1.44 -1.28 -1.54 5.54 -4.32 1 1.22 1.06 1.12 1.08 1.03 1.12 0.93 1.14 0.85 1.18 0.75 1.2 0.68 1.22 0.58 1.25 0.51 1.24 0.42 1.27 0.35 1.28 0.25 1.29 0.19 1.28 0.12 1.28 0.02 1.3 -0.04 1.28 -0.11 1.25 -0.19 1.25 -0.27 1.24 -0.33 1.21 -0.4 1.18 -0.48 1.16 -0.54 1.13 -0.62 1.08 -0.67 1.05 -0.73 1.01 -0.82 0.97 -0.86 0.9 -0.92 0.85 -0.99 0.81 -1.05 0.75 -1.11 0 0zm0 0c1.02,-1.64 3.19,-2.13 4.83,-1.11 1.64,1.02 2.13,3.19 1.11,4.83l-5.94 -3.72zm-6.66 -30.45l3.96 -5.8 0 0.01 1.23 0.88 1.18 0.93 1.12 0.98 1.06 1.01 1 1.04 0.95 1.09 0.89 1.12 0.82 1.16 0.76 1.18 0.7 1.2 0.65 1.23 0.58 1.27 0.52 1.29 0.44 1.31 0.39 1.3 0.32 1.34 0.26 1.34 0.2 1.38 0.11 1.37 0.06 1.35 0 1.38 -0.08 1.4 -0.15 1.37 -0.21 1.38 -0.28 1.38 -0.35 1.34 -0.41 1.36 -0.49 1.36 -0.55 1.33 -0.62 1.31 -0.69 1.3 -0.77 1.28 -5.94 -3.72 0.59 -1 0.53 -1 0.48 -1.03 0.43 -1.01 0.37 -1.02 0.31 -1.04 0.27 -1.06 0.22 -1.02 0.15 -1.04 0.11 -1.05 0.06 -1.02 0 -1.04 -0.04 -1.05 -0.09 -1.03 -0.14 -1 -0.2 -1.02 -0.24 -1 -0.29 -1 -0.34 -0.99 -0.38 -0.95 -0.44 -0.95 -0.49 -0.93 -0.54 -0.94 -0.58 -0.9 -0.64 -0.88 -0.67 -0.86 -0.73 -0.83 -0.78 -0.82 -0.82 -0.79 -0.88 -0.76 -0.92 -0.73 -0.97 -0.7 0 0.01zm0 -0.01c-1.59,-1.09 -2,-3.28 -0.91,-4.87 1.09,-1.59 3.28,-2 4.87,-0.91l-3.96 5.78zm-17.12 -2.73l-2.1 -6.7 0 0 0.8 -0.24 0.84 -0.2 0.8 -0.17 0.79 -0.14 0.83 -0.11 0.8 -0.08 0.79 -0.07 0.85 -0.04 0.81 0 0.77 0.01 0.8 0.04 0.79 0.05 0.79 0.08 0.77 0.1 0.79 0.12 0.75 0.15 0.73 0.14 0.76 0.17 0.73 0.19 0.71 0.2 0.71 0.22 0.68 0.23 0.69 0.24 0.67 0.27 0.66 0.27 0.61 0.28 0.63 0.29 0.61 0.32 0.58 0.31 0.56 0.33 0.54 0.33 0.54 0.35 -3.96 5.8 -0.34 -0.23 -0.38 -0.23 -0.4 -0.23 -0.42 -0.23 -0.43 -0.22 -0.45 -0.21 -0.49 -0.22 -0.5 -0.21 -0.49 -0.19 -0.51 -0.18 -0.56 -0.19 -0.53 -0.16 -0.57 -0.16 -0.57 -0.15 -0.54 -0.13 -0.61 -0.12 -0.59 -0.11 -0.57 -0.08 -0.61 -0.08 -0.59 -0.06 -0.59 -0.05 -0.6 -0.02 -0.63 -0.01 -0.59 0 -0.55 0.02 -0.61 0.05 -0.6 0.06 -0.57 0.09 -0.59 0.1 -0.56 0.11 -0.54 0.14 -0.54 0.16 0 0zm0 0c-1.85,0.57 -3.83,-0.45 -4.4,-2.3 -0.57,-1.85 0.45,-3.83 2.3,-4.4l2.1 6.7z"/>
   <path id="1" class="fil4" d="M148.31 218.43c-3.65,1.14 -5.77,1.71 -9.11,4.26 -7.75,5.92 -12.42,17.56 -9.39,26.57 1.2,3.58 2.13,6.26 4.25,8.98 11.9,15.27 33.2,12.73 42.05,-1.41 7.54,-12.05 4.38,-26.96 -7.65,-35.21 -4.56,-3.12 -12.99,-5.43 -20.15,-3.19z"/>
  </g>
 </g>
</svg>
